<svg width="252" height="264" viewBox="0 0 252 264" fill="none" xmlns="http://www.w3.org/2000/svg">
<path d="M164.768 247.546C188.982 247.546 208.611 238.326 208.611 226.952C208.611 215.577 188.982 206.357 164.768 206.357C140.554 206.357 120.925 215.577 120.925 226.952C120.925 238.326 140.554 247.546 164.768 247.546Z" fill="url(#paint0_linear_201_882)"/>
<path d="M164.767 242.404C187.008 242.404 205.038 234.335 205.038 224.381C205.038 214.426 187.008 206.357 164.767 206.357C142.527 206.357 124.497 214.426 124.497 224.381C124.497 234.335 142.527 242.404 164.767 242.404Z" fill="url(#paint1_linear_201_882)"/>
<path opacity="0.2" d="M166.838 210.209C166.838 210.209 150.733 207.034 143.417 217.492C136.102 227.95 123.212 230.605 151.812 242.333C180.412 254.061 201.821 271.653 221.694 258.249C241.566 244.846 195.15 222.062 166.838 210.209Z" fill="url(#paint2_linear_201_882)"/>
<path d="M170.124 52.1131L157.309 44.6648L165.266 40.0708L178.082 47.5191L170.124 52.1131Z" fill="#D6DBDB"/>
<path d="M155.523 92.1294L142.707 84.6823L142.655 66.5128L155.472 73.9611L155.523 92.1294Z" fill="#858888"/>
<path d="M142.617 53.1472L127.722 61.7469L140.537 69.1952L155.434 60.5954L142.617 53.1472Z" fill="#D6DBDB"/>
<path d="M155.855 29.2334L143.038 21.7851C142.749 26.8843 142.557 31.694 142.564 36.2667L142.611 53.1471L155.434 60.5966L155.386 43.7161C155.373 39.1423 155.565 34.3337 155.855 29.2334Z" fill="#818585"/>
<path d="M126.09 90.9246L113.273 83.4775L113.24 71.8704L126.057 79.3187L126.09 90.9246Z" fill="#858888"/>
<path d="M151.02 18.4043L138.204 10.9572L157.181 0L169.998 7.44829L151.02 18.4043Z" fill="#D6DBDB"/>
<path d="M126.057 79.3187L113.24 71.8704L138.205 10.9572L151.02 18.4043L126.057 79.3187Z" fill="#A9AEAE"/>
<path d="M100.036 62.3197L87.2208 54.8726C90.3598 56.6964 91.9642 63.7344 91.9986 75.6758C91.9986 76.2505 91.9962 76.8182 91.9915 77.3787C91.9915 77.5649 91.9915 77.7463 91.9832 77.9301C91.9832 78.3025 91.9725 78.6736 91.963 79.0377C91.963 79.2523 91.9512 79.4634 91.9452 79.6757C91.9357 80.0041 91.9263 80.3314 91.9144 80.6552C91.9061 80.8757 91.8966 81.0939 91.8859 81.3121C91.8729 81.6204 91.8587 81.9276 91.8432 82.23C91.8314 82.4482 91.8195 82.664 91.8065 82.8798C91.7887 83.1786 91.7697 83.4727 91.7496 83.768C91.7353 83.9779 91.7211 84.1878 91.7057 84.3953C91.6828 84.6894 91.659 84.9803 91.6345 85.2681C91.6179 85.4661 91.6013 85.6642 91.5835 85.861C91.5551 86.1599 91.5254 86.4539 91.4958 86.7469C91.4768 86.9247 91.459 87.1026 91.4401 87.2793C91.4033 87.6113 91.3642 87.9374 91.3215 88.2612C91.3049 88.3916 91.2906 88.5244 91.274 88.6525C91.2468 88.8577 91.2183 89.0569 91.1898 89.2585C91.1614 89.4601 91.1317 89.6889 91.1009 89.8988C91.0701 90.1087 91.0392 90.2878 91.0084 90.4811C90.9776 90.6744 90.9432 90.9009 90.9088 91.106C90.8744 91.3112 90.8412 91.4819 90.808 91.6693C90.7748 91.8567 90.7369 92.0737 90.6989 92.2717C90.661 92.4697 90.6254 92.6369 90.5886 92.8196C90.5519 93.0022 90.5127 93.2038 90.47 93.3923C90.3823 93.8026 90.2898 94.2034 90.1949 94.5983C90.17 94.6991 90.1439 94.7975 90.1178 94.8983C90.0455 95.1877 89.972 95.4747 89.8961 95.7545C89.8688 95.8529 89.8403 95.9502 89.8131 96.0474C89.6625 96.5858 89.5048 97.1088 89.3387 97.6115C89.3174 97.6744 89.2949 97.7301 89.2747 97.7965C89.1593 98.1341 89.0407 98.4642 88.9189 98.7867C88.8774 98.897 88.8359 99.0073 88.7932 99.1152C88.7047 99.3429 88.6138 99.5662 88.5205 99.7852C88.4778 99.886 88.4363 99.9892 88.3936 100.088C88.3082 100.282 88.2217 100.469 88.1339 100.657C88.09 100.752 88.0462 100.849 88.0023 100.941C87.9465 101.06 87.8837 101.167 87.8303 101.279C87.7604 101.419 87.6904 101.559 87.6181 101.696C87.5659 101.793 87.5113 101.888 87.458 101.984C87.3797 102.122 87.3026 102.264 87.2208 102.398C87.1698 102.487 87.1165 102.571 87.0631 102.656C86.9825 102.789 86.9018 102.922 86.8188 103.05C86.7583 103.141 86.7002 103.23 86.6374 103.319C86.5579 103.438 86.4773 103.556 86.4002 103.668C86.3362 103.758 86.2709 103.844 86.2057 103.931C86.1405 104.017 86.0516 104.135 85.9686 104.233C85.8737 104.352 85.7764 104.47 85.6792 104.589C85.614 104.666 85.5488 104.744 85.4824 104.819C85.2855 105.042 85.0839 105.258 84.8776 105.459C84.7839 105.551 84.6878 105.636 84.593 105.724C84.5218 105.789 84.4519 105.857 84.3795 105.92C84.2763 106.01 84.172 106.093 84.0665 106.177C83.9989 106.233 83.9313 106.295 83.8625 106.344C83.7439 106.433 83.6253 106.515 83.5067 106.599C83.4463 106.641 83.3881 106.687 83.3265 106.727C83.1462 106.846 82.9624 106.964 82.7763 107.07L90.8827 111.78L82.7763 107.07C82.5711 107.188 82.3695 107.292 82.1691 107.388L81.9995 107.466C81.8809 107.518 81.7695 107.562 81.6556 107.607C81.4967 107.669 81.339 107.726 81.1813 107.769C81.0864 107.799 80.9904 107.829 80.8967 107.852C80.803 107.876 80.7413 107.887 80.6595 107.902C80.535 107.927 80.4117 107.947 80.2895 107.962C80.2267 107.969 80.1638 107.976 80.101 107.981C79.9459 107.993 79.7903 107.996 79.6349 107.99H79.5745C79.4039 107.98 79.2343 107.957 79.0669 107.922C79.023 107.914 78.9803 107.903 78.9377 107.893C78.8069 107.861 78.6782 107.821 78.5523 107.774C78.5108 107.76 78.4692 107.747 78.4337 107.73C78.2656 107.663 78.1027 107.584 77.9463 107.493L90.7629 114.941L90.8056 114.965C90.9308 115.037 91.0603 115.101 91.1934 115.156C91.2124 115.164 91.2313 115.169 91.2503 115.176C91.2906 115.193 91.331 115.205 91.3689 115.22C91.4401 115.246 91.5112 115.275 91.5835 115.296C91.6559 115.317 91.7021 115.322 91.7555 115.336C91.8089 115.351 91.8409 115.358 91.8836 115.366C91.9263 115.374 91.9417 115.381 91.9713 115.386C92.1052 115.409 92.2401 115.425 92.3757 115.434H92.4516C92.5701 115.44 92.6888 115.44 92.8073 115.434C92.8441 115.434 92.8832 115.425 92.9259 115.423C92.9876 115.423 93.0516 115.411 93.1145 115.404C93.1773 115.397 93.2331 115.394 93.2959 115.385C93.3588 115.375 93.4216 115.357 93.4845 115.345C93.5473 115.333 93.6386 115.314 93.7216 115.294C93.762 115.284 93.8011 115.279 93.8402 115.269C93.8793 115.258 93.9493 115.228 94.0027 115.212C94.158 115.164 94.3157 115.111 94.477 115.049C94.5268 115.029 94.5743 115.02 94.6229 114.998C94.6715 114.977 94.7557 114.938 94.8209 114.908L94.9905 114.83C95.1909 114.734 95.3925 114.631 95.5988 114.512C95.785 114.404 95.9676 114.29 96.1491 114.169C96.2095 114.128 96.2676 114.083 96.3269 114.041C96.4455 113.958 96.5641 113.875 96.6827 113.786C96.7538 113.731 96.8226 113.668 96.8938 113.613C96.9958 113.53 97.1001 113.45 97.2009 113.362C97.2744 113.298 97.3456 113.229 97.4179 113.163C97.4903 113.096 97.5934 113.005 97.68 112.926L97.6978 112.907C97.9041 112.704 98.1057 112.489 98.3037 112.265C98.3227 112.244 98.3429 112.226 98.3619 112.203C98.4093 112.15 98.4532 112.091 98.5006 112.036C98.5978 111.918 98.6939 111.799 98.7888 111.68C98.8184 111.644 98.8492 111.61 98.8777 111.574C98.9263 111.51 98.9738 111.442 99.0224 111.378C99.0864 111.29 99.1516 111.204 99.2157 111.115C99.2429 111.077 99.2714 111.042 99.2975 111.003C99.352 110.927 99.403 110.846 99.4564 110.766C99.5098 110.687 99.575 110.587 99.6378 110.496C99.6592 110.464 99.6793 110.435 99.6995 110.403C99.7623 110.306 99.8181 110.204 99.8821 110.106C99.9462 110.007 99.9888 109.932 100.041 109.845C100.054 109.822 100.068 109.801 100.081 109.779C100.147 109.661 100.209 109.542 100.273 109.433C100.337 109.324 100.383 109.24 100.436 109.14C100.444 109.125 100.454 109.109 100.462 109.093C100.524 108.974 100.581 108.856 100.643 108.737C100.706 108.619 100.762 108.508 100.82 108.39C100.82 108.377 100.833 108.364 100.84 108.349C100.877 108.273 100.911 108.192 100.947 108.112C101.036 107.922 101.125 107.732 101.211 107.535C101.223 107.507 101.236 107.481 101.248 107.454C101.278 107.384 101.306 107.308 101.336 107.237C101.43 107.015 101.522 106.791 101.611 106.561C101.632 106.508 101.655 106.459 101.675 106.405C101.695 106.35 101.714 106.286 101.736 106.236C101.857 105.912 101.975 105.581 102.091 105.242C102.108 105.194 102.126 105.149 102.142 105.1C102.142 105.087 102.149 105.073 102.154 105.06C102.32 104.557 102.478 104.033 102.629 103.495C102.643 103.444 102.659 103.398 102.672 103.347C102.685 103.296 102.697 103.25 102.71 103.203C102.786 102.923 102.86 102.637 102.932 102.348C102.958 102.247 102.984 102.147 103.009 102.044C103.105 101.649 103.197 101.247 103.284 100.839C103.284 100.825 103.291 100.812 103.294 100.798C103.331 100.627 103.364 100.449 103.399 100.275C103.435 100.101 103.475 99.9073 103.518 99.7188C103.561 99.5302 103.589 99.3227 103.625 99.1259C103.66 98.929 103.695 98.7476 103.727 98.5543C103.759 98.361 103.792 98.1487 103.825 97.9448C103.858 97.7408 103.889 97.5487 103.919 97.3518C103.948 97.155 103.977 96.9439 104.005 96.74C104.034 96.536 104.065 96.3202 104.093 96.1055C104.093 96.0901 104.093 96.0747 104.099 96.0593C104.113 95.9526 104.124 95.8399 104.138 95.732C104.178 95.4011 104.219 95.0703 104.257 94.7323C104.276 94.5592 104.292 94.3825 104.311 94.2082C104.341 93.9129 104.372 93.6153 104.399 93.3152C104.417 93.1208 104.433 92.9227 104.45 92.7223C104.475 92.4318 104.499 92.1413 104.521 91.8448C104.537 91.6396 104.552 91.4309 104.566 91.2222C104.587 90.9281 104.606 90.6309 104.623 90.3305C104.635 90.117 104.647 89.9024 104.659 89.6854C104.675 89.3806 104.69 89.0723 104.703 88.7628C104.712 88.5446 104.722 88.3276 104.73 88.107C104.742 87.7845 104.752 87.4572 104.762 87.1287C104.768 86.9164 104.775 86.7053 104.78 86.4907C104.788 86.1219 104.794 85.7472 104.8 85.3713C104.8 85.191 104.8 85.0155 104.808 84.8341C104.813 84.2728 104.813 83.7044 104.808 83.1288C104.78 71.1827 103.176 64.1447 100.036 62.3197Z" fill="#818585"/>
<path d="M97.7932 47.9484C97.9047 47.8939 98.0162 47.8393 98.1264 47.7883C98.4537 47.6342 98.7787 47.4883 99.0976 47.3519C99.1297 47.3389 99.1617 47.3235 99.1937 47.3092L99.3206 47.2594C99.7214 47.0934 100.114 46.9428 100.506 46.8053C100.644 46.7566 100.779 46.714 100.916 46.6677C101.207 46.5705 101.495 46.4792 101.78 46.3985C101.948 46.3499 102.116 46.3025 102.282 46.2598C102.448 46.2171 102.582 46.1839 102.73 46.1495C102.921 46.1056 103.111 46.0665 103.298 46.0309C103.443 46.0036 103.587 45.9752 103.73 45.9515C103.946 45.9143 104.161 45.8827 104.373 45.8566C104.459 45.8459 104.545 45.8329 104.63 45.8234C104.928 45.7914 105.223 45.7676 105.514 45.7546C105.552 45.7546 105.588 45.7546 105.626 45.7546C105.874 45.7463 106.119 45.7463 106.36 45.7546C106.44 45.7546 106.52 45.7546 106.597 45.7629C106.739 45.7629 106.878 45.7819 107.018 45.7926C107.294 45.8151 107.565 45.8471 107.831 45.8874C107.926 45.9028 108.021 45.9135 108.115 45.9313C108.459 45.9941 108.797 46.07 109.125 46.1685C109.179 46.1839 109.231 46.204 109.283 46.2206C109.56 46.306 109.832 46.4021 110.098 46.5088C110.19 46.5456 110.281 46.5859 110.373 46.6274C110.644 46.746 110.91 46.8752 111.168 47.0175C111.244 47.059 111.323 47.0946 111.397 47.1361L98.5806 39.689L98.4798 39.6309C98.4395 39.6072 98.3944 39.5906 98.3529 39.5681C98.0932 39.4258 97.8276 39.2965 97.556 39.1779C97.5074 39.1566 97.4624 39.1281 97.4137 39.108C97.3651 39.0878 97.3248 39.0783 97.2821 39.0605C97.0157 38.9538 96.7437 38.8577 96.4663 38.7724C96.4247 38.7593 96.3844 38.7415 96.3417 38.7285L96.3097 38.7214C95.9767 38.6255 95.6391 38.5463 95.2982 38.4842C95.2674 38.4842 95.2401 38.4688 95.2104 38.464C95.1476 38.4534 95.08 38.451 95.0171 38.4415C94.7491 38.3996 94.4772 38.3676 94.2013 38.3455C94.1384 38.3455 94.0827 38.3277 94.0139 38.3241C93.9451 38.3205 93.8586 38.3241 93.7767 38.3158C93.6949 38.3075 93.6178 38.3087 93.5396 38.3075C93.3024 38.3016 93.0534 38.3075 92.8044 38.3075C92.7676 38.3075 92.732 38.3075 92.6953 38.3075H92.6644C92.3846 38.3206 92.0988 38.3443 91.8094 38.3763C91.7252 38.3846 91.6399 38.3976 91.5557 38.4083C91.4062 38.4273 91.258 38.4427 91.1062 38.4664C91.041 38.4771 90.9746 38.4925 90.9094 38.5032C90.7671 38.5269 90.6224 38.5553 90.4777 38.5838C90.2904 38.6206 90.1018 38.6597 89.9109 38.7024C89.7627 38.738 89.6132 38.7747 89.4626 38.8139C89.3689 38.8376 89.2788 38.8554 89.1851 38.8815C89.1116 38.9016 89.0345 38.9301 88.9598 38.9514C88.6768 39.0305 88.389 39.1202 88.0965 39.2206C87.9602 39.2669 87.825 39.3095 87.6862 39.3593C87.2996 39.4969 86.9071 39.6463 86.5075 39.8123C86.4707 39.8278 86.4352 39.8384 86.3984 39.855L86.3782 39.8633L86.2846 39.9048C85.9644 40.04 85.6395 40.1871 85.311 40.3412L84.9789 40.5013C84.7121 40.6294 84.4441 40.7646 84.1726 40.9057L83.8393 41.0776C83.4658 41.2757 83.0887 41.482 82.7057 41.7038C82.2313 41.9789 81.757 42.2682 81.2969 42.5623C81.1783 42.6406 81.0502 42.7212 80.9269 42.7995C80.5308 43.058 80.1407 43.3213 79.7553 43.5928L79.5501 43.7339C79.1078 44.0494 78.675 44.3743 78.2457 44.7063C78.1366 44.7905 78.0299 44.8771 77.922 44.9625C77.5733 45.2384 77.229 45.5202 76.8891 45.808L76.6128 46.0451C76.2033 46.3985 75.8009 46.759 75.4056 47.1266C75.319 47.2073 75.2348 47.2903 75.1483 47.3721C74.9656 47.5452 74.7818 47.716 74.6028 47.8927C74.4949 47.9982 74.3929 48.1085 74.2861 48.2152C74.0988 48.4042 73.913 48.5939 73.7288 48.7844C73.4987 49.0216 73.2715 49.2635 73.0469 49.5102C72.8667 49.7058 72.6912 49.9015 72.5121 50.1031C72.4244 50.2015 72.3331 50.2964 72.2465 50.3948C72.1599 50.4932 72.0935 50.5845 72.0093 50.677C71.584 51.1727 71.1678 51.6783 70.7606 52.1937C70.6907 52.2815 70.6159 52.3645 70.5472 52.4523C70.5199 52.4878 70.495 52.5258 70.4677 52.5613C70.029 53.1298 69.6013 53.7085 69.1846 54.2974C69.1692 54.32 69.1514 54.3413 69.136 54.3638C69.0518 54.4824 68.9735 54.6105 68.8894 54.7314C68.5953 55.1583 68.3047 55.5888 68.0213 56.0276C67.9786 56.0952 67.9312 56.1592 67.8885 56.2268C67.7913 56.3774 67.7023 56.5351 67.6074 56.6869C67.381 57.0486 67.158 57.4114 66.9398 57.7791C66.877 57.8846 66.8106 57.9866 66.7477 58.0933C66.673 58.2226 66.603 58.3578 66.5283 58.4882C66.3125 58.8669 66.0998 59.2483 65.8903 59.6325C65.8144 59.7736 65.7338 59.9088 65.6532 60.05C65.6022 60.1448 65.5571 60.2432 65.5073 60.3381C65.2761 60.7792 65.0519 61.2251 64.8302 61.6746C64.7567 61.8252 64.6772 61.971 64.6037 62.1228C64.5812 62.1691 64.5622 62.2165 64.5397 62.2639C64.2195 62.9327 63.9096 63.6103 63.61 64.2965L63.5815 64.3581C63.5459 64.4399 63.5163 64.5241 63.4807 64.6048C63.2032 65.2538 62.9356 65.9092 62.6779 66.5709C62.6364 66.6753 62.5913 66.7761 62.551 66.8816C62.5107 66.9871 62.4787 67.0903 62.4395 67.1923C62.117 68.0437 61.8051 68.8999 61.5157 69.7703C61.5125 69.778 61.5097 69.7859 61.5074 69.794C61.3098 70.3846 61.1201 70.9799 60.9382 71.5799C60.8872 71.7507 60.8398 71.9238 60.7888 72.0957C60.6702 72.4906 60.5517 72.8843 60.4426 73.2816C60.4307 73.3219 60.4212 73.3646 60.4105 73.4002C60.2161 74.1046 60.0311 74.8129 59.8556 75.5252C59.8354 75.6082 59.8176 75.6912 59.7975 75.7742C59.6457 76.4067 59.501 77.0415 59.3634 77.6787C59.3504 77.7356 59.3362 77.7973 59.3243 77.8483C59.303 77.9503 59.2864 78.0534 59.2662 78.1542C59.0812 79.0397 58.9108 79.931 58.7551 80.8283C58.7302 80.9682 58.7041 81.107 58.6804 81.2469C58.5191 82.2051 58.378 83.1692 58.2499 84.138C58.2369 84.2352 58.2191 84.3325 58.206 84.4297C58.1894 84.559 58.1788 84.6894 58.1622 84.8187C58.0784 85.5025 58.0021 86.1887 57.9333 86.8773C57.9155 87.0481 57.8954 87.2176 57.8799 87.3884C57.8009 88.2288 57.7349 89.0711 57.6819 89.9154C57.6689 90.1229 57.6594 90.3305 57.6475 90.538C57.6096 91.2044 57.5791 91.8717 57.5562 92.5397C57.5479 92.7769 57.5396 93.0211 57.5337 93.2631C57.5111 94.1157 57.4969 94.9683 57.4993 95.8209C57.6001 108.999 60.4912 119.111 66.6564 122.693L79.4719 130.142C73.3054 126.559 70.4155 116.446 70.3159 103.269C70.3159 102.417 70.3266 101.564 70.3491 100.711C70.3491 100.474 70.3645 100.228 70.3728 99.9856C70.3958 99.3192 70.4262 98.6523 70.4642 97.9851C70.4748 97.7788 70.4843 97.5712 70.4985 97.3637C70.5515 96.5194 70.6175 95.677 70.6966 94.8367C70.712 94.6647 70.7322 94.494 70.7488 94.3232C70.8175 93.637 70.8942 92.9524 70.9788 92.2693C71.0061 92.0405 71.0357 91.8116 71.0654 91.5839C71.2014 90.6171 71.3484 89.6561 71.5065 88.7011C71.5302 88.5612 71.5575 88.4224 71.5812 88.2825C71.7393 87.386 71.9097 86.4951 72.0923 85.6096C72.1255 85.4507 72.1552 85.2918 72.1896 85.1353C72.3271 84.4973 72.4722 83.8625 72.6248 83.2308C72.6449 83.1478 72.6615 83.0648 72.6817 82.9818C72.8572 82.2703 73.0422 81.5627 73.2367 80.8591C73.3553 80.4144 73.4881 79.9733 73.6185 79.5334C73.6683 79.3662 73.7146 79.199 73.7644 79.0329C73.9494 78.4242 74.1419 77.8202 74.3419 77.221C74.6324 76.3506 74.9443 75.4932 75.2657 74.6429C75.3451 74.4354 75.4234 74.2291 75.5028 74.0227C75.7613 73.361 76.0289 72.7057 76.3056 72.0566C76.3495 71.9546 76.391 71.8503 76.4349 71.7483C76.7337 71.0613 77.0436 70.3838 77.3646 69.7158C77.4595 69.5165 77.5603 69.3221 77.6563 69.1228C77.8781 68.6734 78.101 68.2275 78.3323 67.7876C78.4508 67.5504 78.5837 67.3132 78.7105 67.0761C78.9193 66.6919 79.1319 66.3104 79.3485 65.9317C79.4837 65.6946 79.6205 65.4574 79.7588 65.2202C79.977 64.8514 80.2012 64.4874 80.4277 64.1257C80.5652 63.9051 80.7004 63.6846 80.8415 63.4664C81.1237 63.0288 81.4155 62.5983 81.7096 62.1702C81.8092 62.0268 81.904 61.8797 82.0048 61.7374C82.4199 61.1469 82.8472 60.5682 83.2867 60.0013C83.3828 59.8768 83.4836 59.7559 83.5808 59.6325C83.9872 59.1171 84.403 58.6119 84.8283 58.117C84.9932 57.9249 85.1568 57.7316 85.324 57.5431C85.4912 57.3545 85.6798 57.147 85.8612 56.9502C86.0849 56.7059 86.3118 56.4647 86.5419 56.2268C86.7257 56.0347 86.9131 55.8438 87.1004 55.6552C87.385 55.3706 87.6708 55.0884 87.9625 54.8121L88.227 54.5725C88.6223 54.2033 89.0247 53.8428 89.4342 53.491C89.5255 53.4116 89.6192 53.3357 89.7117 53.2539C90.0508 52.9661 90.3947 52.6843 90.7433 52.4084L91.0671 52.1522C91.4952 51.8202 91.9292 51.4941 92.3715 51.1798C92.4391 51.1312 92.5091 51.0862 92.5767 51.0375C92.9625 50.7672 93.353 50.5031 93.7483 50.2454L94.1195 50.0082C94.5819 49.7141 95.0504 49.426 95.5271 49.1509L88.074 44.8249L95.5211 49.1532C95.9053 48.9315 96.2813 48.7251 96.6548 48.5259C96.7663 48.4666 96.8766 48.4073 96.9868 48.354C97.2588 48.2148 97.5276 48.0796 97.7932 47.9484Z" fill="#C7CCCC"/>
<path d="M56.884 117.492L44.0674 110.045L52.0256 105.451L64.8411 112.898L56.884 117.492Z" fill="#D6DBDB"/>
<path d="M42.2827 157.51L29.466 150.061L29.415 131.893L42.2305 139.34L42.2827 157.51Z" fill="#858888"/>
<path d="M27.2971 134.574L14.4805 127.127L29.3771 118.526L42.1926 125.975L27.2971 134.574Z" fill="#D6DBDB"/>
<path d="M42.6136 94.6125L29.7981 87.1595C29.5088 92.2586 29.3167 97.0684 29.3297 101.641L29.3772 118.522L42.1926 125.97L42.1452 109.098C42.1321 104.521 42.3243 99.7129 42.6136 94.6125Z" fill="#818585"/>
<path d="M12.8487 156.304L0.0332038 148.857L0 137.25L12.8166 144.698L12.8487 156.304Z" fill="#858888"/>
<path d="M37.7795 83.7834L24.9629 76.3363L43.9412 65.3791L56.7567 72.8274L37.7795 83.7834Z" fill="#D6DBDB"/>
<path d="M12.8166 144.698L0 137.25L24.9633 76.3363L37.7799 83.7834L12.8166 144.698Z" fill="#A9AEAE"/>
<path d="M170.124 52.1131L178.082 47.5191L178.12 60.8848L170.162 65.4799L170.214 83.6482L155.523 92.1294L155.472 73.9611L126.09 90.9186L126.057 79.3128L151.02 18.4043L169.994 7.44829L170.124 52.1131ZM155.386 43.7138C155.373 39.1423 155.565 34.3337 155.861 29.2334L155.454 29.4706C153.325 35.637 151.6 41.0919 149.373 47.193L140.543 68.9627V69.1999L155.434 60.5966L155.386 43.7149" fill="url(#paint3_linear_201_882)"/>
<path d="M95.5216 49.152C113.271 38.904 120.262 53.0713 120.321 73.9362C120.388 97.4977 112.169 118.447 95.2323 128.225C78.0932 138.12 70.4931 124.778 70.3295 103.267C70.2666 81.2303 78.3849 59.055 95.5216 49.152ZM95.6046 114.513C101.628 111.038 104.864 100.477 104.814 83.1277C104.766 66.246 101.579 59.1641 95.3544 62.7584C89.6386 66.0515 85.787 76.615 85.94 94.2568C85.8866 111.787 89.5853 117.988 95.6046 114.513Z" fill="url(#paint4_linear_201_882)"/>
<path d="M56.8839 117.492L64.841 112.898L64.8789 126.265L56.9207 130.859L56.9717 149.027L42.2814 157.51L42.2304 139.337L12.8486 156.294L12.8154 144.688L37.7799 83.7834L56.7535 72.8274L56.8839 117.492ZM42.145 109.098C42.132 104.526 42.3241 99.7176 42.6194 94.6173L42.2138 94.8545C40.0793 101.021 38.3645 106.476 36.1316 112.576L27.3018 134.345V134.583L42.1972 125.983L42.145 109.098Z" fill="url(#paint5_linear_201_882)"/>
<path d="M243.23 155.425C240.193 155.425 236.734 152.688 232.944 147.283C228.912 141.533 224.741 133.122 220.551 122.281C213.85 104.944 207.389 99.7733 203.143 98.4879C199.613 97.4206 197.38 98.9516 197.357 98.9622L196.402 97.6056C196.52 97.5226 199.327 95.5897 203.625 96.8941C206.547 97.7799 209.435 99.9417 212.221 103.323C215.705 107.557 219.029 113.733 222.1 121.677C231.249 145.35 238.988 153.76 243.238 153.76H243.37C245.774 153.659 247.123 150.762 247.831 148.349C249.162 143.81 250.347 130.991 248.811 116.705C247.443 103.965 243.453 85.9464 232.21 72.4539C219.955 57.7399 201.784 51.5225 178.201 53.9701L178.029 52.3194C202.196 49.809 220.855 56.2268 233.485 71.3914C244.988 85.2029 249.064 103.56 250.457 116.528C252.017 131.04 250.789 144.145 249.419 148.816C247.86 154.131 245.304 155.338 243.434 155.418C243.37 155.424 243.3 155.425 243.23 155.425Z" fill="url(#paint6_linear_201_882)"/>
<path d="M176.28 55.6161L191.446 71.0842C191.446 71.0842 188.615 73.8294 187.295 77.6289C185.975 81.4283 187.003 84.0574 187.003 84.0574L172.536 75.4363L176.28 55.6161Z" fill="url(#paint7_linear_201_882)"/>
<path d="M179.382 205.827C179.382 205.827 179.792 211.575 181.635 214.673C183.478 217.772 184.718 218.397 185.117 219.115C185.515 219.834 186.517 224.164 183.931 224.394C181.345 224.624 175.393 219.261 173.957 217.37C172.521 215.478 170.484 212.855 170.424 211.366C170.365 209.877 170.463 205.37 170.463 205.37L179.382 205.827Z" fill="url(#paint8_linear_201_882)"/>
<path d="M150.084 215.711C150.084 215.711 149.235 220.852 150.401 226.055C151.566 231.258 151.964 235.002 151.887 235.804C151.81 236.605 149.573 236.592 146.817 234.304C144.061 232.015 140.619 226.833 140.888 223.013C141.157 219.194 141.633 215.299 141.633 215.299L150.084 215.711Z" fill="url(#paint9_linear_201_882)"/>
<path d="M181.602 111.084C181.602 111.084 185.956 156.892 184.512 161.672C183.068 166.452 181.111 170.396 180.913 180.611C180.715 190.826 180.416 205.018 180.416 205.018C180.416 205.018 181.31 207.072 175.91 207.929C170.509 208.787 169.292 205.126 169.292 205.126C169.292 205.126 165.008 182.225 166.226 173.683C167.444 165.142 170.377 161.293 170.377 161.293L157.065 119.511C157.065 119.511 179.244 103.554 181.602 111.084Z" fill="url(#paint10_linear_201_882)"/>
<path d="M144.75 119.22C144.75 119.22 142.204 125.571 143.446 132.792L144.683 140.011L146.392 169.565C146.392 169.565 141.434 179.737 140.636 191.1C139.838 202.463 139.526 213.868 139.526 213.868C139.526 213.868 138.645 218.912 144.583 218.696C150.522 218.48 151.724 216.229 151.724 216.229C151.724 216.229 155.246 183.827 160.721 174.1C166.197 164.372 170.013 120.756 170.013 120.756L144.75 119.22Z" fill="url(#paint11_linear_201_882)"/>
<path d="M140.986 221.716C140.986 221.716 145.586 228.254 147.94 227.991C150.293 227.729 150.006 223.744 150.006 223.744C150.006 223.744 153.781 230.868 156.223 233.833C158.664 236.798 158.316 240.982 152.386 240.634C146.457 240.285 146.457 234.356 142.447 231.653C138.436 228.951 137.084 222.589 140.986 221.716Z" fill="url(#paint12_linear_201_882)"/>
<path d="M170.406 209.856C170.406 209.856 175.233 217.268 178.546 216.919C181.859 216.571 181.392 214.235 181.392 214.235C181.392 214.235 185.258 219.011 187.263 220.231C189.269 221.452 191.083 225.638 185.641 226.771C180.199 227.905 177.324 223.458 174.533 220.581C171.743 217.704 168.866 217.529 167.907 215.698C166.947 213.867 167.755 209.596 170.406 209.856Z" fill="url(#paint13_linear_201_882)"/>
<path d="M142.665 63.1509C142.665 63.1509 134.525 67.8243 134.072 70.5376C133.619 73.2508 140.856 99.0286 141.76 105.812C142.664 112.595 144.751 119.22 144.751 119.22C144.751 119.22 149.448 126.162 163.316 122.845C177.185 119.528 181.602 111.084 181.602 111.084C181.602 111.084 179.597 59.5294 176.28 55.6161C172.963 51.7028 167.085 50.9439 163.619 52.4511C160.153 53.9583 142.665 63.1509 142.665 63.1509Z" fill="url(#paint14_linear_201_882)"/>
<path d="M140.397 70.9052C133.665 68.3034 129.293 71.4008 129.731 81.1615C130.17 90.9222 132.069 102.173 132.069 102.173C132.069 102.173 132.27 105.533 139.476 105.387C146.681 105.241 148.288 101.442 148.288 101.442C148.288 101.442 146.827 73.3883 140.397 70.9052Z" fill="url(#paint15_linear_201_882)"/>
<path d="M168.766 36.9473C168.766 36.9473 169.934 39.1661 168.529 41.8093C167.123 44.4525 165.453 44.6399 165.453 44.6399L162.75 40.927L168.766 36.9473Z" fill="url(#paint16_linear_201_882)"/>
<path d="M166.598 44.5356C166.266 45.0366 165.999 45.5772 165.802 46.1447C165.898 46.8052 165.946 47.4719 165.944 48.1393C165.95 49.3382 165.149 52.1226 163.973 54.2713C162.798 56.4201 162.157 57.5668 161.088 57.3545C160.02 57.1423 159.309 56.9501 159.309 56.9501L158.881 60.1733V60.1804C158.921 60.4614 158.905 60.7475 158.834 61.0223C158.662 61.741 158.092 62.7679 156.323 63.4569C156.246 63.4865 156.133 63.5221 155.984 63.5636C154.155 63.9936 152.283 64.2148 150.404 64.2229C144.961 64.2111 143.772 62.5722 143.772 62.5722C143.772 62.5722 146.64 48.9006 146.539 45.3775C146.438 41.8544 145.243 31.5933 150.2 31.0691C155.157 30.545 166.92 38.151 166.92 38.151C166.92 38.151 167.179 43.6153 166.598 44.5356Z" fill="url(#paint17_linear_201_882)"/>
<path d="M167.951 38.5814C167.951 38.5814 164.502 42.7651 159.071 42.4947C153.64 42.2243 152.703 46.4957 151.51 46.3214C150.317 46.1471 150.789 41.329 149.294 41.4393C147.798 41.5496 147.011 44.2581 147.137 46.9037C147.262 49.5493 146.595 50.3165 144.402 47.0116C142.209 43.7066 139.153 39.7388 139.896 35.2196C140.638 30.7003 144.685 29.6923 144.685 29.6923C144.685 29.6923 144.477 24.9988 150.759 24.6999C157.042 24.4011 167.385 31.3181 169.225 33.8416C170.957 36.2228 167.951 38.5814 167.951 38.5814Z" fill="url(#paint18_linear_201_882)"/>
<path d="M159.307 56.949L158.879 60.1721V60.1792C158.879 60.2148 158.879 60.5468 158.831 61.0211C158.659 61.7398 158.089 62.7667 156.321 63.4557C156.244 63.4853 156.13 63.5209 155.982 63.5624C156.071 61.3307 156.207 58.2795 156.244 57.9285C156.327 57.1743 154.427 56.4272 153.375 55.2745C152.733 54.5332 152.332 53.6143 152.224 52.6396C152.319 52.7938 153.245 54.3662 155.359 55.5959C157.591 56.8837 159.307 56.949 159.307 56.949Z" fill="#EA8B88"/>
<path d="M198.357 101.034C198.339 100.979 198.319 100.926 198.3 100.871C198.274 100.796 198.249 100.72 198.221 100.644C198.198 100.588 198.175 100.525 198.151 100.475C198.14 100.449 198.131 100.423 198.119 100.397C198.065 100.271 198.01 100.146 197.949 100.021C197.936 99.9939 197.922 99.969 197.909 99.9417C197.871 99.867 197.831 99.7923 197.79 99.7164C197.75 99.6405 197.723 99.5824 197.686 99.5148C197.665 99.4781 197.641 99.4413 197.62 99.4045C197.585 99.3441 197.55 99.2859 197.513 99.2255C197.476 99.165 197.455 99.1235 197.423 99.0725C197.391 99.0215 197.337 98.9456 197.296 98.8816C197.254 98.8175 197.234 98.7867 197.202 98.7405C197.186 98.7167 197.171 98.693 197.155 98.6693C197.067 98.5412 196.974 98.4155 196.88 98.291L196.869 98.2768L196.827 98.2234C196.75 98.125 196.673 98.0266 196.59 97.9293C196.561 97.8926 196.529 97.8582 196.498 97.8226C196.467 97.787 196.428 97.7396 196.392 97.704C196.357 97.6685 196.325 97.6234 196.29 97.5854C196.216 97.5012 196.138 97.4194 196.06 97.3376C196.039 97.3139 196.018 97.2902 195.995 97.2676L195.974 97.2439C195.862 97.1253 195.75 97.0162 195.633 96.9071L195.582 96.8597C195.541 96.8206 195.499 96.7838 195.464 96.7411C195.399 96.6818 195.334 96.6225 195.269 96.5632C195.23 96.5289 195.19 96.498 195.151 96.4636C195.112 96.4293 195.032 96.3664 194.976 96.319C194.936 96.2846 194.896 96.249 194.858 96.217C194.82 96.185 194.755 96.1399 194.704 96.0984C194.624 96.0379 194.546 95.9798 194.466 95.9205C194.432 95.8956 194.399 95.8683 194.363 95.8446C194.328 95.8209 194.279 95.7913 194.238 95.7628C194.107 95.6727 193.977 95.5885 193.844 95.5067C193.801 95.4794 193.761 95.4497 193.717 95.4237C193.673 95.3976 193.636 95.3798 193.598 95.3561C193.533 95.3181 193.469 95.2825 193.403 95.247C193.296 95.1889 193.189 95.1284 193.081 95.0809C193.017 95.0489 192.953 95.0169 192.888 94.9873C192.773 94.9335 192.657 94.8837 192.539 94.8378C192.484 94.8153 192.428 94.7904 192.372 94.7691C192.2 94.7038 192.028 94.6505 191.855 94.5947C191.737 94.5615 191.63 94.5331 191.518 94.5082C191.488 94.4999 191.456 94.4939 191.425 94.4868C191.339 94.469 191.256 94.4536 191.175 94.4394L191.118 94.4287H191.088C191.012 94.4169 190.936 94.4086 190.861 94.4003H190.806C190.713 94.392 190.622 94.386 190.533 94.3837H190.495C190.359 94.3808 190.222 94.3851 190.086 94.3967C189.976 94.4062 189.869 94.4228 189.766 94.4418H189.729L189.702 94.4489C189.61 94.4672 189.52 94.4901 189.431 94.5177H189.418L189.385 94.5295C189.315 94.5532 189.246 94.5781 189.18 94.6066L189.143 94.6196L189.117 94.6327C189.041 94.6671 188.968 94.7038 188.897 94.7442H188.888C188.822 94.783 188.757 94.8254 188.695 94.8711L188.67 94.8876C188.66 94.8949 188.65 94.9028 188.642 94.9114C188.589 94.9517 188.538 94.9932 188.49 95.0383C188.48 95.0451 188.471 95.0526 188.462 95.0608L188.44 95.0809L181.222 102.03C181.237 102.015 181.254 102.002 181.27 101.986C181.319 101.942 181.37 101.9 181.422 101.859L181.475 101.82C181.538 101.775 181.602 101.732 181.669 101.693C181.743 101.651 181.818 101.614 181.894 101.575L181.956 101.549C182.022 101.52 182.091 101.494 182.161 101.471L182.207 101.456C182.296 101.429 182.387 101.406 182.479 101.387L182.542 101.375C182.646 101.356 182.751 101.34 182.863 101.33C182.995 101.32 183.131 101.316 183.271 101.318H183.309C183.399 101.318 183.489 101.327 183.582 101.335L183.637 101.341C183.712 101.349 183.788 101.358 183.865 101.369L183.95 101.384C184.033 101.398 184.116 101.413 184.201 101.431L184.295 101.451C184.406 101.477 184.517 101.506 184.632 101.539C184.804 101.589 184.976 101.648 185.148 101.713C185.205 101.735 185.259 101.758 185.315 101.781C185.434 101.828 185.552 101.878 185.671 101.932C185.735 101.961 185.799 101.993 185.864 102.025C185.971 102.077 186.079 102.133 186.186 102.191C186.251 102.227 186.316 102.262 186.38 102.3C186.463 102.348 186.546 102.399 186.628 102.45C186.761 102.529 186.892 102.614 187.023 102.706C187.099 102.758 187.175 102.81 187.251 102.865C187.326 102.919 187.409 102.983 187.488 103.043C187.566 103.102 187.674 103.186 187.765 103.261L187.938 103.406C188.045 103.496 188.149 103.588 188.253 103.683C188.294 103.721 188.337 103.758 188.371 103.802C188.512 103.933 188.65 104.07 188.784 104.208L188.85 104.281C188.969 104.399 189.073 104.518 189.181 104.645L189.288 104.763C189.398 104.895 189.507 105.029 189.612 105.164L189.654 105.219C189.773 105.371 189.881 105.526 189.987 105.681C190.019 105.729 190.05 105.776 190.081 105.824C190.156 105.942 190.229 106.051 190.299 106.167C190.335 106.227 190.371 106.286 190.405 106.346C190.465 106.45 190.523 106.554 190.577 106.658C190.616 106.734 190.656 106.809 190.695 106.884C190.77 107.035 190.841 107.187 190.907 107.339C190.917 107.365 190.927 107.391 190.939 107.417C190.992 107.549 191.041 107.681 191.088 107.813C191.107 107.867 191.127 107.921 191.145 107.976C191.201 108.147 191.25 108.317 191.292 108.488C191.648 109.968 191.383 111.136 190.662 111.832L197.867 104.888C198.59 104.192 198.856 103.024 198.498 101.544C198.464 101.373 198.413 101.202 198.357 101.034Z" fill="url(#paint19_linear_201_882)"/>
<path d="M184.637 101.539C181.672 100.678 179.866 102.395 180.587 105.373C181.308 108.351 184.291 111.462 187.248 112.323C190.206 113.184 192.018 111.467 191.295 108.488C190.573 105.509 187.602 102.399 184.637 101.539Z" fill="#A2A2A2"/>
<path d="M182.961 103.972C182.324 103.785 181.936 104.154 182.095 104.803C182.254 105.451 182.898 106.119 183.535 106.306C184.172 106.494 184.558 106.125 184.4 105.482C184.243 104.839 183.598 104.16 182.961 103.972Z" fill="#5A5A5A"/>
<path d="M186.846 107.233C186.209 107.045 185.823 107.415 185.981 108.064C186.138 108.712 186.783 109.379 187.42 109.566C188.057 109.753 188.444 109.385 188.286 108.742C188.128 108.099 187.483 107.421 186.846 107.233Z" fill="#5A5A5A"/>
<path d="M46.392 150.112C46.392 150.055 46.392 149.994 46.3991 149.942C46.3991 149.861 46.3991 149.78 46.4098 149.704C46.4098 149.644 46.4205 149.586 46.4264 149.523C46.4264 149.496 46.4264 149.467 46.4347 149.439C46.449 149.304 46.4656 149.167 46.4869 149.03C46.4869 149.001 46.4976 148.972 46.5035 148.942C46.5165 148.859 46.5331 148.776 46.5497 148.693C46.5664 148.61 46.5747 148.544 46.5913 148.469C46.6007 148.427 46.6126 148.386 46.6221 148.35C46.6375 148.283 46.6541 148.215 46.6707 148.147C46.6873 148.08 46.698 148.029 46.7134 147.976C46.7288 147.922 46.7573 147.828 46.7786 147.755C46.7952 147.7 46.8106 147.646 46.8272 147.592C46.8355 147.565 46.8427 147.538 46.851 147.511C46.8984 147.362 46.9494 147.215 47.0039 147.068C47.0039 147.068 47.0039 147.056 47.0099 147.052L47.0348 146.989C47.0786 146.87 47.1237 146.752 47.1711 146.633C47.1901 146.589 47.2103 146.547 47.2281 146.504L47.2933 146.354C47.3146 146.307 47.3348 146.258 47.3561 146.212C47.4036 146.109 47.4534 146.009 47.5032 145.909L47.5459 145.821L47.5601 145.792C47.6324 145.651 47.7071 145.51 47.7854 145.371C47.7973 145.351 47.8103 145.331 47.821 145.311C47.8494 145.262 47.8779 145.214 47.9075 145.166C47.9514 145.09 47.9953 145.013 48.0415 144.939C48.0688 144.895 48.0985 144.852 48.1257 144.809L48.2503 144.62C48.2799 144.575 48.3072 144.529 48.338 144.486C48.3688 144.442 48.4139 144.382 48.4566 144.329C48.5135 144.25 48.5752 144.169 48.6309 144.092C48.657 144.057 48.6807 144.022 48.7068 143.989C48.7329 143.955 48.772 143.913 48.8029 143.87C48.9013 143.752 49.0021 143.633 49.1053 143.514C49.1385 143.476 49.1681 143.436 49.2013 143.396C49.2345 143.355 49.2665 143.329 49.2985 143.295C49.3495 143.24 49.4005 143.187 49.4527 143.134C49.5381 143.047 49.6247 142.963 49.7112 142.88C49.7634 142.831 49.8156 142.782 49.8689 142.734C49.9638 142.65 50.061 142.568 50.1595 142.49C50.2057 142.452 50.252 142.412 50.2994 142.371C50.4441 142.26 50.5923 142.152 50.7417 142.053C50.8413 141.988 50.9409 141.929 51.0382 141.872L51.1236 141.825C51.1983 141.783 51.273 141.744 51.3477 141.706L51.3987 141.68L51.426 141.667C51.4959 141.634 51.5659 141.603 51.6347 141.574L51.6868 141.552C51.7722 141.516 51.8576 141.485 51.9418 141.457H51.956C51.9634 141.454 51.9709 141.452 51.9786 141.45C52.1126 141.406 52.2442 141.37 52.3735 141.342C52.4792 141.319 52.5861 141.302 52.6936 141.291H52.7304H52.7577C52.8525 141.283 52.945 141.278 53.0363 141.278H53.0494H53.085C53.1585 141.278 53.232 141.278 53.3043 141.291H53.3423H53.3708C53.4529 141.301 53.5344 141.315 53.615 141.334H53.6245C53.6992 141.351 53.7728 141.374 53.8451 141.399L53.8747 141.407L53.9079 141.421C53.9701 141.444 54.0311 141.47 54.0906 141.498L54.1226 141.511L54.1499 141.526L63.0722 146.059C63.052 146.049 63.0319 146.041 63.0129 146.032C62.9524 146.003 62.8943 145.979 62.8303 145.955L62.7674 145.932C62.6939 145.907 62.6204 145.886 62.5457 145.868H62.5385C62.4543 145.849 62.3737 145.836 62.2907 145.826L62.2231 145.818C62.1508 145.811 62.0784 145.807 62.0037 145.805H61.9563C61.865 145.805 61.7713 145.805 61.6764 145.82C61.6551 145.82 61.6337 145.82 61.6136 145.827C61.508 145.839 61.4013 145.854 61.2922 145.877C61.1592 145.905 61.0278 145.941 60.8985 145.983L60.8618 145.995C60.7776 146.024 60.6922 146.056 60.6056 146.09L60.5546 146.113C60.4847 146.142 60.4159 146.172 60.3459 146.206L60.2665 146.245C60.1929 146.282 60.1182 146.321 60.0423 146.364L59.9581 146.411C59.8597 146.468 59.7613 146.53 59.6617 146.593C59.5111 146.691 59.364 146.799 59.2182 146.912C59.1707 146.947 59.1245 146.988 59.0782 147.03C58.981 147.11 58.8838 147.19 58.7877 147.276L58.6312 147.422C58.5434 147.501 58.4569 147.585 58.3715 147.674C58.3205 147.728 58.2683 147.781 58.2173 147.836C58.1663 147.89 58.0881 147.979 58.024 148.051C57.9208 148.17 57.8212 148.289 57.7228 148.407C57.6647 148.479 57.6042 148.552 57.5509 148.625C57.4975 148.699 57.4323 148.784 57.3754 148.863C57.3184 148.941 57.2402 149.053 57.1738 149.152C57.1323 149.215 57.0908 149.278 57.0552 149.342C56.9793 149.46 56.9069 149.579 56.8358 149.697C56.8073 149.746 56.7777 149.793 56.7504 149.842C56.6544 150.01 56.5619 150.18 56.4741 150.353C56.4599 150.382 56.4468 150.411 56.4314 150.441C56.3591 150.588 56.2891 150.736 56.2227 150.886C56.2002 150.935 56.1777 150.985 56.1563 151.035C56.0887 151.194 56.0247 151.353 55.9642 151.509C55.9559 151.531 55.9464 151.552 55.9393 151.573C55.8729 151.752 55.8124 151.929 55.7555 152.114L55.7069 152.277C55.6689 152.407 55.6333 152.539 55.6001 152.669C55.5828 152.737 55.5662 152.805 55.5503 152.872C55.5231 152.99 55.5005 153.109 55.478 153.22C55.4614 153.303 55.4448 153.388 55.4318 153.471C55.4045 153.637 55.3808 153.803 55.363 153.968C55.363 153.995 55.363 154.023 55.3547 154.051C55.3416 154.193 55.3345 154.334 55.3286 154.474C55.3286 154.531 55.3215 154.593 55.3215 154.646C55.3215 154.825 55.3215 155.002 55.3298 155.18C55.4199 156.699 56.0164 157.737 56.9105 158.192L47.9882 153.658C47.0952 153.204 46.4976 152.165 46.4086 150.646C46.3908 150.472 46.3885 150.293 46.392 150.112Z" fill="url(#paint20_linear_201_882)"/>
<path d="M59.6598 146.587C62.2366 144.899 64.4719 146.012 64.6522 149.07C64.8324 152.128 62.8924 155.976 60.3144 157.664C57.7363 159.351 55.5034 158.239 55.3231 155.181C55.1429 152.122 57.0841 148.274 59.6598 146.587Z" fill="#A2A2A2"/>
<path d="M57.7164 154.087C57.7164 154.052 57.7164 154.016 57.7164 153.981C57.7164 153.945 57.7164 153.881 57.7223 153.83L57.733 153.719C57.733 153.701 57.733 153.683 57.733 153.665C57.7425 153.581 57.7532 153.496 57.7662 153.411C57.7662 153.392 57.7733 153.375 57.7757 153.357C57.784 153.305 57.7947 153.254 57.8053 153.202C57.816 153.149 57.8208 153.109 57.8314 153.062C57.8314 153.037 57.8445 153.011 57.8504 152.985C57.8563 152.958 57.8706 152.9 57.8812 152.859C57.8919 152.817 57.8978 152.786 57.9073 152.751C57.9168 152.715 57.9346 152.66 57.9476 152.615C57.9607 152.569 57.9666 152.547 57.9773 152.514C57.988 152.481 57.9868 152.479 57.9927 152.463C58.0224 152.37 58.0544 152.279 58.0876 152.188V152.177L58.103 152.138C58.1307 152.065 58.1591 151.993 58.1884 151.921C58.199 151.894 58.2121 151.866 58.224 151.84C58.2358 151.814 58.25 151.779 58.2643 151.748C58.2785 151.717 58.2892 151.687 58.3034 151.659C58.3331 151.595 58.3639 151.532 58.3947 151.469C58.4042 151.451 58.4125 151.433 58.4208 151.416L58.4303 151.398C58.4754 151.309 58.5216 151.222 58.5702 151.136L58.5928 151.098C58.6094 151.067 58.6283 151.039 58.6461 151.008C58.6639 150.977 58.7007 150.913 58.7291 150.867L58.7825 150.786C58.8074 150.746 58.8335 150.707 58.8596 150.667C58.8857 150.628 58.8951 150.612 58.9141 150.584C58.9331 150.557 58.9615 150.52 58.9841 150.488C59.0208 150.437 59.0564 150.388 59.0932 150.339L59.1406 150.275C59.1596 150.25 59.1809 150.227 59.1999 150.204C59.2616 150.125 59.3244 150.05 59.3885 149.98L59.4477 149.907L59.5082 149.844L59.6043 149.745C59.6576 149.69 59.711 149.638 59.7656 149.587C59.7976 149.556 59.8296 149.525 59.8628 149.497C59.9221 149.444 59.9814 149.394 60.043 149.344C60.0727 149.32 60.1012 149.295 60.1308 149.273C60.2209 149.203 60.3122 149.136 60.4059 149.075C60.4676 149.034 60.5245 148.998 60.5909 148.962L60.6431 148.932L60.783 148.859L60.815 148.842L60.8316 148.835C60.8755 148.814 60.9182 148.795 60.9621 148.777L60.9941 148.763C61.0475 148.742 61.0996 148.721 61.153 148.704H61.1613H61.1755C61.256 148.677 61.338 148.655 61.421 148.637C61.4886 148.623 61.555 148.614 61.6202 148.606H61.6428H61.6594C61.7186 148.606 61.7779 148.598 61.8337 148.598H61.8633C61.9096 148.598 61.9546 148.598 61.9997 148.606H62.0234H62.0412C62.0923 148.612 62.143 148.621 62.193 148.632H62.2001C62.2475 148.644 62.2926 148.657 62.3377 148.673H62.3554L62.3768 148.681C62.4159 148.695 62.4539 148.712 62.4954 148.729L62.5155 148.737L62.5321 148.746L68.0807 151.565L68.044 151.548C68.0053 151.531 67.9657 151.515 67.9254 151.501L67.8862 151.487C67.8412 151.471 67.7952 151.457 67.7487 151.446H67.7416C67.6915 151.435 67.6409 151.426 67.5898 151.42H67.5483C67.5032 151.42 67.4581 151.413 67.4119 151.412H67.3823C67.3253 151.412 67.2637 151.412 67.2079 151.42H67.1688C67.1036 151.428 67.0372 151.437 66.9696 151.451C66.8866 151.469 66.8046 151.491 66.7241 151.518L66.7016 151.525C66.6482 151.543 66.596 151.562 66.5427 151.584L66.5095 151.598C66.4668 151.616 66.4241 151.635 66.3802 151.656L66.3316 151.68C66.2853 151.703 66.2391 151.728 66.1917 151.754L66.1395 151.783C66.0778 151.819 66.0209 151.856 65.9545 151.902C65.8608 151.964 65.7695 152.03 65.6794 152.1C65.6497 152.122 65.6213 152.147 65.5916 152.171C65.5311 152.22 65.473 152.271 65.4114 152.323C65.3782 152.352 65.3462 152.383 65.3141 152.414C65.2596 152.465 65.205 152.517 65.1529 152.572L65.0568 152.671C65.0153 152.715 64.9762 152.76 64.9382 152.807C64.8754 152.879 64.8125 152.954 64.7509 153.03L64.6441 153.166C64.6074 153.215 64.5718 153.264 64.535 153.314C64.4983 153.364 64.4508 153.433 64.4165 153.494C64.3904 153.534 64.3643 153.573 64.3394 153.613C64.2919 153.685 64.2469 153.76 64.203 153.835C64.1852 153.864 64.1662 153.894 64.1496 153.925C64.0903 154.029 64.0311 154.135 63.9777 154.243L63.9516 154.297C63.9065 154.389 63.8627 154.481 63.8212 154.574C63.8069 154.604 63.7939 154.635 63.7808 154.667C63.7381 154.766 63.6978 154.864 63.6622 154.964C63.6622 154.978 63.6516 154.991 63.6468 155.004C63.6065 155.115 63.5686 155.228 63.5282 155.34C63.5176 155.374 63.5081 155.407 63.4986 155.442C63.4749 155.522 63.4524 155.604 63.4322 155.686C63.4215 155.727 63.4109 155.769 63.4014 155.812C63.3848 155.884 63.3693 155.956 63.3563 156.029C63.3456 156.08 63.335 156.132 63.3267 156.184C63.3101 156.287 63.2958 156.39 63.284 156.492C63.284 156.51 63.284 156.527 63.284 156.544C63.2757 156.633 63.2709 156.72 63.2674 156.808C63.2674 156.843 63.2674 156.879 63.2674 156.914C63.2674 157.026 63.2674 157.137 63.2674 157.246C63.3231 158.195 63.6943 158.838 64.2504 159.12L58.7054 156.294C58.1492 156.012 57.7781 155.366 57.7223 154.421C57.7152 154.31 57.7152 154.199 57.7164 154.087Z" fill="url(#paint21_linear_201_882)"/>
<path d="M65.9676 151.895C67.5708 150.845 68.9607 151.539 69.0733 153.436C69.186 155.334 67.9776 157.731 66.3755 158.782C64.7734 159.833 63.3836 159.138 63.271 157.24C63.1583 155.343 64.3655 152.944 65.9676 151.895Z" fill="#A2A2A2"/>
<path d="M178.723 110.639C178.722 110.633 178.72 110.627 178.717 110.621C178.717 110.614 178.717 110.606 178.709 110.598L178.702 110.58V110.572L178.684 110.532C178.684 110.53 178.684 110.527 178.684 110.524L178.672 110.499C178.669 110.492 178.665 110.485 178.66 110.478C178.661 110.476 178.661 110.473 178.66 110.471L178.647 110.448L178.638 110.432C178.633 110.425 178.629 110.419 178.625 110.412L178.614 110.396C178.614 110.394 178.614 110.391 178.614 110.389L178.586 110.349L178.561 110.318V110.311C178.556 110.305 178.551 110.299 178.545 110.294L178.535 110.281L178.511 110.255C178.499 110.242 178.487 110.23 178.475 110.219V110.214L178.462 110.202L178.442 110.183L178.429 110.172L178.411 110.158L178.398 110.146C178.392 110.143 178.387 110.139 178.382 110.134L178.357 110.115L178.346 110.107L178.332 110.098L178.29 110.071L178.233 110.046H178.225L178.2 110.032L178.166 110.014L178.146 110.005L178.109 109.989L178.091 109.982L178.036 109.963L178.001 109.954H177.99H177.964H177.956H177.931H177.902H177.859C177.847 109.953 177.836 109.953 177.824 109.954C177.814 109.955 177.804 109.957 177.795 109.961L177.773 109.969L177.75 109.981L177.729 109.994L177.713 110.007L175.024 112.608H175.03L175.046 112.595L175.066 112.58C175.073 112.576 175.081 112.572 175.09 112.569L175.115 112.56L175.143 112.553H175.177H175.258H175.284H175.292H175.32H175.329L175.365 112.563C175.383 112.568 175.401 112.573 175.419 112.58L175.437 112.588L175.474 112.604L175.494 112.614L175.528 112.631L175.549 112.642L175.575 112.659L175.617 112.686L175.641 112.703L175.666 112.722L175.696 112.744L175.713 112.76L175.747 112.789C175.751 112.792 175.756 112.796 175.76 112.801L175.804 112.844L175.811 112.852L175.846 112.89L175.857 112.903L175.891 112.946C175.903 112.961 175.915 112.978 175.926 112.994L175.936 113.009C175.943 113.022 175.952 113.033 175.959 113.045L175.971 113.064L175.989 113.097L176 113.121C176.009 113.138 176.016 113.153 176.023 113.17V113.178C176.029 113.192 176.034 113.206 176.038 113.22C176.039 113.225 176.039 113.231 176.038 113.236C176.038 113.255 176.05 113.273 176.055 113.291C176.077 113.351 176.082 113.415 176.07 113.478C176.058 113.54 176.029 113.599 175.987 113.647L178.676 111.046C178.718 110.998 178.746 110.94 178.757 110.877C178.769 110.815 178.764 110.75 178.742 110.69C178.737 110.673 178.731 110.656 178.723 110.639Z" fill="url(#paint22_linear_201_882)"/>
<path d="M175.347 112.563C175.034 112.471 174.843 112.653 174.919 112.967C174.97 113.137 175.06 113.291 175.183 113.419C175.305 113.547 175.456 113.644 175.623 113.702C175.935 113.794 176.127 113.612 176.051 113.297C176 113.127 175.91 112.973 175.787 112.845C175.665 112.718 175.514 112.621 175.347 112.563Z" fill="#A2A2A2"/>
<path d="M183.882 114.354C183.882 114.349 183.882 114.343 183.876 114.337C183.873 114.329 183.87 114.321 183.868 114.313L183.861 114.295V114.287L183.843 114.247V114.238L183.83 114.215L183.806 114.197L183.799 114.185L183.789 114.166L183.779 114.151L183.765 114.13L183.755 114.115V114.108C183.746 114.094 183.736 114.081 183.726 114.067C183.719 114.057 183.711 114.046 183.702 114.037L183.691 114.025L183.681 114.012L183.67 114L183.645 113.974L183.608 113.938L183.595 113.926L183.574 113.907L183.566 113.9L183.543 113.881L183.53 113.871L183.514 113.859L183.489 113.84L183.478 113.832L183.465 113.823L183.423 113.796L183.41 113.788L183.397 113.781L183.376 113.769L183.343 113.751L183.323 113.741L183.285 113.725L183.268 113.718C183.249 113.718 183.231 113.705 183.212 113.7L183.177 113.69H183.167H183.141H183.133H183.108H183.08H183.032H182.998H182.991L182.962 113.698L182.941 113.706H182.934L182.91 113.718L182.889 113.732L182.872 113.746L180.145 116.331L180.161 116.318L180.181 116.305L180.204 116.293L180.228 116.284L180.256 116.277H180.263H180.298C180.312 116.276 180.326 116.276 180.34 116.277H180.377H180.403H180.413H180.439H180.449L180.485 116.285L180.539 116.304L180.557 116.311L180.594 116.327L180.614 116.337L180.649 116.354C180.655 116.358 180.662 116.362 180.669 116.366L180.695 116.382C180.709 116.391 180.723 116.399 180.736 116.408L180.76 116.425L180.786 116.444L180.815 116.468L180.834 116.483L180.867 116.512L180.88 116.525C180.894 116.538 180.909 116.552 180.924 116.567L180.96 116.609L180.972 116.622C180.984 116.635 180.995 116.649 181.007 116.663C181.021 116.681 181.032 116.698 181.043 116.714C181.047 116.719 181.05 116.724 181.053 116.729L181.077 116.765L181.087 116.784C181.094 116.795 181.101 116.806 181.106 116.817L181.118 116.841C181.126 116.857 181.134 116.873 181.141 116.889V116.897L181.156 116.94C181.156 116.94 181.156 116.95 181.156 116.956C181.162 116.974 181.167 116.992 181.171 117.011C181.193 117.071 181.199 117.135 181.187 117.198C181.175 117.26 181.147 117.319 181.105 117.367L183.793 114.765C183.835 114.717 183.864 114.659 183.875 114.596C183.887 114.533 183.882 114.469 183.86 114.409C183.893 114.39 183.888 114.372 183.882 114.354Z" fill="url(#paint23_linear_201_882)"/>
<path d="M180.507 116.274C180.194 116.184 180.001 116.366 180.079 116.68C180.129 116.849 180.22 117.004 180.342 117.132C180.464 117.26 180.615 117.357 180.782 117.415C181.095 117.505 181.287 117.324 181.21 117.01C181.159 116.84 181.069 116.685 180.946 116.558C180.824 116.43 180.674 116.333 180.507 116.274Z" fill="#A2A2A2"/>
<path d="M182.429 119.245C182.409 119.184 182.386 119.126 182.365 119.065C182.335 118.979 182.309 118.895 182.276 118.811C182.252 118.748 182.225 118.692 182.199 118.624L182.163 118.536C182.104 118.396 182.044 118.256 181.973 118.117C181.96 118.088 181.942 118.059 181.928 118.029C181.887 117.945 181.842 117.862 181.798 117.779C181.754 117.696 181.722 117.629 181.679 117.554C181.656 117.512 181.629 117.472 181.606 117.435C181.567 117.369 181.527 117.302 181.487 117.236C181.447 117.17 181.422 117.117 181.386 117.067C181.351 117.016 181.291 116.924 181.244 116.853C181.197 116.782 181.176 116.748 181.141 116.695L181.089 116.617C180.989 116.475 180.887 116.334 180.782 116.195L180.768 116.179C180.754 116.159 180.738 116.14 180.723 116.121C180.638 116.011 180.553 115.901 180.464 115.793L180.361 115.674L180.242 115.537C180.203 115.494 180.167 115.449 180.123 115.405C180.04 115.311 179.954 115.221 179.867 115.13L179.795 115.052L179.77 115.026C179.651 114.898 179.521 114.773 179.393 114.65L179.335 114.598C179.29 114.555 179.242 114.513 179.196 114.471C179.124 114.405 179.053 114.338 178.979 114.273C178.936 114.235 178.89 114.199 178.846 114.162C178.782 114.108 178.718 114.053 178.653 114.001C178.607 113.963 178.563 113.924 178.517 113.883C178.47 113.841 178.398 113.797 178.345 113.753C178.257 113.686 178.169 113.619 178.08 113.555C178.042 113.528 178.004 113.497 177.962 113.47C177.919 113.443 177.868 113.411 177.822 113.379C177.675 113.28 177.529 113.185 177.383 113.094C177.335 113.064 177.289 113.031 177.242 113.003C177.194 112.974 177.152 112.953 177.107 112.927L176.89 112.808C176.771 112.744 176.652 112.682 176.534 112.623L176.319 112.519C176.19 112.459 176.059 112.4 175.93 112.353C175.867 112.328 175.806 112.301 175.744 112.277C175.552 112.205 175.36 112.138 175.169 112.082C175.041 112.046 174.916 112.014 174.793 111.985L174.687 111.963C174.594 111.943 174.502 111.925 174.41 111.909C174.39 111.909 174.367 111.901 174.347 111.897H174.314C174.229 111.884 174.144 111.875 174.061 111.865L173.998 111.858C173.896 111.85 173.796 111.844 173.696 111.84H173.653C173.501 111.837 173.349 111.842 173.198 111.855C173.079 111.865 172.96 111.882 172.842 111.906H172.801L172.771 111.914C172.668 111.935 172.567 111.96 172.47 111.99H172.456L172.419 112.004C172.341 112.03 172.265 112.059 172.19 112.09L172.15 112.105C172.139 112.105 172.131 112.114 172.12 112.119C172.036 112.157 171.953 112.197 171.875 112.238L171.865 112.244C171.792 112.288 171.72 112.335 171.652 112.385L171.623 112.403C171.613 112.411 171.603 112.42 171.591 112.429C171.533 112.474 171.473 112.521 171.422 112.571C171.412 112.579 171.401 112.586 171.392 112.596L171.367 112.618L170.001 113.971C170.019 113.954 170.038 113.939 170.056 113.923C170.11 113.873 170.167 113.826 170.225 113.782L170.286 113.737C170.354 113.687 170.426 113.639 170.5 113.596L170.511 113.59C170.591 113.546 170.672 113.506 170.756 113.471L170.826 113.441C170.9 113.411 170.977 113.382 171.055 113.356L171.106 113.339C171.205 113.309 171.306 113.283 171.407 113.262L171.477 113.249C171.596 113.228 171.715 113.209 171.833 113.198C171.985 113.186 172.137 113.181 172.288 113.184H172.331C172.431 113.184 172.532 113.19 172.634 113.202C172.655 113.202 172.676 113.202 172.696 113.209C172.779 113.217 172.864 113.227 172.949 113.24L173.045 113.256C173.136 113.271 173.229 113.288 173.323 113.309L173.428 113.332C173.547 113.361 173.676 113.392 173.804 113.428C173.995 113.484 174.187 113.547 174.379 113.623C174.441 113.647 174.498 113.674 174.565 113.699C174.695 113.751 174.825 113.805 174.954 113.866L175.169 113.969C175.287 114.028 175.406 114.088 175.525 114.155L175.742 114.274C175.834 114.327 175.925 114.384 176.018 114.441C176.165 114.532 176.312 114.627 176.457 114.727C176.541 114.785 176.626 114.845 176.711 114.902C176.795 114.959 176.887 115.034 176.975 115.1C177.063 115.167 177.181 115.26 177.283 115.343L177.477 115.505C177.595 115.606 177.714 115.709 177.832 115.814C177.879 115.856 177.926 115.897 177.971 115.94C178.128 116.087 178.282 116.239 178.431 116.394L178.505 116.474C178.63 116.606 178.753 116.742 178.874 116.88L178.992 117.018C179.117 117.163 179.236 117.312 179.348 117.464L179.395 117.523C179.525 117.693 179.647 117.866 179.766 118.039C179.802 118.091 179.835 118.144 179.87 118.197C179.954 118.323 180.034 118.452 180.107 118.58C180.147 118.646 180.186 118.712 180.225 118.779C180.292 118.897 180.355 119.016 180.416 119.128C180.46 119.211 180.505 119.295 180.547 119.379C180.63 119.546 180.709 119.716 180.784 119.885L180.819 119.972C180.88 120.118 180.938 120.266 180.985 120.413C181.007 120.473 181.029 120.532 181.05 120.593C181.111 120.784 181.168 120.975 181.214 121.165C181.613 122.812 181.315 124.113 180.512 124.887L181.878 123.535C182.681 122.761 182.979 121.46 182.58 119.813C182.547 119.626 182.49 119.435 182.429 119.245Z" fill="url(#paint24_linear_201_882)"/>
<path d="M173.813 113.43C170.518 112.471 168.5 114.378 169.306 117.699C170.113 121.019 173.43 124.479 176.723 125.439C180.016 126.398 182.033 124.49 181.229 121.17C180.425 117.849 177.104 114.388 173.813 113.43Z" fill="url(#paint25_linear_201_882)"/>
<path d="M179.832 121.162C179.814 121.109 179.794 121.054 179.775 121.001C179.748 120.925 179.724 120.848 179.695 120.772C179.673 120.717 179.648 120.661 179.626 120.605L179.594 120.527C179.539 120.401 179.483 120.275 179.423 120.15C179.411 120.124 179.396 120.098 179.383 120.071C179.345 119.996 179.304 119.921 179.264 119.846C179.224 119.771 179.196 119.711 179.159 119.645C179.137 119.607 179.113 119.571 179.092 119.533C179.058 119.474 179.022 119.414 178.987 119.355C178.951 119.296 178.927 119.252 178.895 119.202C178.863 119.152 178.811 119.074 178.768 119.01L178.675 118.869L178.628 118.799C178.54 118.671 178.447 118.544 178.353 118.42L178.341 118.405C178.328 118.388 178.313 118.371 178.3 118.353C178.224 118.254 178.147 118.155 178.063 118.059C178.033 118.022 178.001 117.987 177.972 117.951L177.865 117.833C177.83 117.793 177.798 117.753 177.763 117.714C177.688 117.63 177.611 117.549 177.534 117.467L177.468 117.396L177.446 117.374C177.336 117.255 177.222 117.146 177.107 117.036L177.055 116.988C177.015 116.95 176.972 116.914 176.936 116.87C176.872 116.81 176.808 116.751 176.742 116.692C176.703 116.657 176.662 116.625 176.623 116.592C176.565 116.542 176.505 116.495 176.449 116.446L176.33 116.344C176.28 116.304 176.227 116.268 176.176 116.226C176.098 116.165 176.018 116.107 175.939 116.048L175.837 115.971C175.795 115.942 175.753 115.917 175.711 115.889C175.581 115.8 175.449 115.715 175.316 115.633C175.275 115.607 175.233 115.576 175.191 115.551L175.072 115.482C175.008 115.445 174.943 115.41 174.878 115.374C174.771 115.315 174.664 115.256 174.556 115.207L174.363 115.113C174.244 115.06 174.126 115.011 174.007 114.964C173.951 114.941 173.897 114.917 173.84 114.896C173.668 114.831 173.496 114.772 173.324 114.721C173.206 114.688 173.098 114.66 172.987 114.634L172.893 114.614C172.808 114.596 172.725 114.58 172.643 114.567L172.587 114.556H172.557C172.478 114.544 172.402 114.535 172.329 114.528L172.274 114.52C172.181 114.512 172.091 114.507 172.002 114.505H171.963C171.827 114.502 171.691 114.506 171.555 114.517C171.443 114.528 171.338 114.543 171.234 114.563H171.197L171.169 114.57C171.077 114.589 170.987 114.612 170.899 114.639H170.887L170.854 114.652C170.783 114.675 170.715 114.701 170.648 114.728C170.636 114.734 170.623 114.737 170.611 114.742L170.586 114.755C170.51 114.789 170.436 114.826 170.364 114.867H170.356C170.29 114.906 170.226 114.949 170.163 114.992L170.138 115.009C170.129 115.018 170.119 115.026 170.109 115.033C170.057 115.073 170.006 115.116 169.958 115.16C169.949 115.168 169.94 115.174 169.93 115.182L169.909 115.204L164.775 122.504L164.812 122.47C164.849 122.437 164.887 122.405 164.931 122.376L164.971 122.345C165.018 122.311 165.066 122.279 165.116 122.25H165.124C165.178 122.219 165.233 122.191 165.29 122.166L165.336 122.145C165.386 122.124 165.438 122.105 165.49 122.089L165.525 122.077C165.59 122.057 165.659 122.039 165.729 122.025L165.776 122.016C165.855 122 165.934 121.989 166.013 121.982C166.116 121.973 166.218 121.97 166.321 121.972H166.349C166.415 121.972 166.484 121.972 166.553 121.984H166.596L166.765 122.006L166.83 122.016L167.018 122.052L167.089 122.067C167.172 122.087 167.256 122.108 167.342 122.132C167.471 122.17 167.601 122.215 167.731 122.264C167.772 122.279 167.814 122.298 167.856 122.315C167.943 122.351 168.031 122.387 168.118 122.434L168.263 122.504C168.344 122.544 168.424 122.585 168.5 122.629L168.646 122.711C168.709 122.747 168.765 122.786 168.832 122.824C168.932 122.885 169.03 122.949 169.129 123.016L169.299 123.134C169.36 123.178 169.418 123.223 169.477 123.268C169.537 123.314 169.617 123.376 169.686 123.432L169.816 123.541C169.896 123.609 169.975 123.679 170.054 123.75L170.147 123.834C170.253 123.934 170.356 124.036 170.457 124.141L170.507 124.195C170.592 124.284 170.675 124.376 170.756 124.469L170.835 124.561C170.918 124.661 171 124.76 171.079 124.862C171.089 124.875 171.101 124.888 171.11 124.903C171.198 125.021 171.281 125.133 171.362 125.251C171.385 125.286 171.408 125.321 171.432 125.357C171.487 125.442 171.542 125.529 171.595 125.615L171.675 125.749C171.72 125.828 171.761 125.906 171.803 125.986C171.834 126.043 171.863 126.105 171.892 126.156C171.947 126.275 172.001 126.384 172.049 126.498L172.074 126.556C172.115 126.655 172.151 126.755 172.186 126.853C172.2 126.895 172.215 126.935 172.228 126.972C172.271 127.101 172.309 127.229 172.34 127.357C172.609 128.468 172.409 129.346 171.866 129.869L179.351 125.007C180.072 124.312 180.34 123.144 179.98 121.664C179.938 121.505 179.894 121.334 179.832 121.162Z" fill="url(#paint26_linear_201_882)"/>
<path d="M167.335 122.148C165.114 121.502 163.753 122.792 164.295 125.028C164.837 127.265 167.076 129.602 169.298 130.246C171.52 130.89 172.879 129.602 172.337 127.366C171.795 125.129 169.556 122.794 167.335 122.148Z" fill="url(#paint27_linear_201_882)"/>
<path d="M169.207 126.973C169.207 126.959 169.197 126.943 169.191 126.928C169.185 126.913 169.177 126.886 169.169 126.865C169.16 126.844 169.157 126.834 169.15 126.819L169.141 126.798C169.126 126.762 169.111 126.728 169.094 126.693L169.082 126.671C169.073 126.65 169.061 126.629 169.05 126.609C169.04 126.589 169.031 126.571 169.021 126.552L169.003 126.522L168.973 126.473L168.948 126.43L168.913 126.377L168.887 126.337L168.873 126.318C168.85 126.283 168.824 126.248 168.798 126.213L168.787 126.199L168.722 126.117L168.697 126.087L168.667 126.053L168.639 126.02C168.619 125.997 168.596 125.975 168.575 125.952L168.557 125.932L168.461 125.837L168.447 125.824L168.412 125.792L168.358 125.743L168.324 125.715L168.276 125.675C168.265 125.666 168.254 125.656 168.243 125.647L168.2 125.615L168.134 125.565L168.105 125.544C168.094 125.536 168.083 125.53 168.071 125.522C168.035 125.497 167.998 125.473 167.962 125.45L167.926 125.428L167.893 125.409L167.838 125.379L167.749 125.333L167.696 125.307C167.664 125.292 167.632 125.278 167.6 125.265L167.552 125.246C167.505 125.229 167.458 125.212 167.41 125.198C167.363 125.184 167.347 125.181 167.316 125.174H167.29L167.222 125.161H167.205H167.197L167.134 125.153H167.118H167.044H167.033C166.994 125.15 166.954 125.15 166.914 125.153C166.884 125.153 166.854 125.16 166.826 125.165H166.815H166.808L166.732 125.184H166.722C166.703 125.189 166.684 125.196 166.665 125.205H166.655H166.648C166.627 125.214 166.607 125.224 166.587 125.236L166.534 125.271H166.527L166.482 125.309H166.475L164.478 127.234C164.481 127.229 164.486 127.225 164.491 127.222C164.504 127.209 164.518 127.197 164.533 127.187L164.548 127.176L164.601 127.14C164.62 127.129 164.64 127.118 164.661 127.109L164.679 127.101C164.697 127.094 164.716 127.087 164.736 127.081H164.748C164.773 127.074 164.798 127.067 164.824 127.062H164.842L164.931 127.049C164.967 127.049 165.005 127.049 165.049 127.049H165.06H165.135H165.15L165.213 127.056H165.238L165.306 127.069H165.333C165.363 127.076 165.394 127.083 165.426 127.093C165.458 127.102 165.521 127.124 165.569 127.141L165.615 127.16C165.648 127.173 165.68 127.187 165.712 127.202L165.765 127.228L165.854 127.273L165.909 127.304L165.978 127.345C166.014 127.368 166.051 127.392 166.087 127.417C166.122 127.441 166.129 127.445 166.15 127.46L166.216 127.509L166.292 127.57L166.341 127.61L166.428 127.687L166.463 127.719C166.501 127.756 166.54 127.792 166.581 127.838L166.6 127.858C166.631 127.89 166.662 127.924 166.692 127.958L166.721 127.993C166.752 128.028 166.782 128.066 166.81 128.103L166.822 128.119C166.854 128.16 166.885 128.204 166.914 128.247C166.924 128.26 166.932 128.273 166.941 128.286C166.962 128.317 166.982 128.349 167.001 128.382L167.031 128.43L167.078 128.517C167.089 128.538 167.101 128.56 167.11 128.58C167.131 128.621 167.152 128.664 167.169 128.706C167.169 128.714 167.169 128.721 167.178 128.728C167.193 128.764 167.206 128.8 167.219 128.837C167.219 128.853 167.23 128.868 167.235 128.882C167.25 128.93 167.264 128.977 167.276 129.025C167.376 129.435 167.301 129.759 167.102 129.951L169.099 128.027C169.298 127.834 169.373 127.51 169.273 127.1C169.236 127.068 169.221 127.02 169.207 126.973Z" fill="url(#paint28_linear_201_882)"/>
<path d="M165.406 127.114C164.585 126.877 164.084 127.351 164.283 128.181C164.482 129.012 165.31 129.869 166.129 130.107C166.949 130.346 167.45 129.87 167.251 129.04C167.052 128.21 166.225 127.353 165.406 127.114Z" fill="#A2A2A2"/>
<path d="M146.444 103.459C146.444 103.459 147.882 112.044 148.873 112.441C149.863 112.837 162.478 113.626 166.858 113.331C171.239 113.036 172.542 113.826 172.542 113.826C172.542 113.826 172.03 115.112 174.795 116.993C177.561 118.874 181.029 120.893 180.337 123.743C179.644 126.592 176.736 126.905 173.212 125.504C169.688 124.102 169.475 122.002 165.95 122.119C162.424 122.237 142.541 123.129 139.47 119.866C136.399 116.604 134.444 104.661 134.444 104.661C134.444 104.661 140.157 106.552 146.444 103.459Z" fill="url(#paint29_linear_201_882)"/>
<path d="M186.338 79.9401L188.689 82.5075C188.689 82.5075 187.84 92.8433 186.9 95.0655C185.959 97.2878 182.297 97.793 183.915 99.0974C185.532 100.402 188.252 95.9988 188.835 99.3429C189.418 102.687 190.048 105.845 192.102 106.201C194.156 106.556 198.438 105.886 197.335 101.503C196.232 97.1206 194.04 96.7079 194.598 94.3434C195.157 91.9788 199.46 79.5583 198.258 78.2052C197.055 76.8522 190.99 71.5645 190.99 71.5645C190.99 71.5645 187.462 73.0005 186.338 79.9401Z" fill="url(#paint30_linear_201_882)"/>
<path d="M77.4269 236.202C77.2147 236.202 77.0036 236.202 76.7925 236.195C70.919 236.05 66.0487 233.833 62.7094 229.782C58.8933 225.157 57.3209 218.495 58.2826 211.036C59.2668 203.403 62.8777 195.629 68.4512 189.144C75.2948 181.183 77.989 174.113 76.4593 168.131C74.4801 160.397 65.9657 157.114 65.8803 157.08L66.4649 155.527C66.561 155.564 68.8497 156.435 71.4242 158.359C74.8631 160.927 77.1577 164.169 78.0649 167.72C79.737 174.257 76.9253 181.831 69.7082 190.226C58.9858 202.701 56.473 219.612 63.9889 228.727C67.0128 232.395 71.4597 234.402 76.8316 234.537C83.055 234.69 90.3171 232.427 98.4141 227.808C118.31 216.463 135.678 189.986 146.744 169.774C158.763 147.821 166.139 128.328 166.213 128.135L167.766 128.719C167.693 128.914 160.275 148.522 148.2 170.571C141.102 183.533 133.807 194.8 126.513 204.058C117.366 215.669 108.188 224.145 99.2382 229.251C91.146 233.865 83.8103 236.202 77.4269 236.202Z" fill="url(#paint31_linear_201_882)"/>
<path d="M163.628 40.3187C163.628 40.3187 163.628 34.4523 160.206 29.971C156.783 25.4897 149.788 24.7865 149.788 24.7865C151.815 24.4531 153.892 24.5943 155.855 25.1992C159.02 26.2083 162.614 28.8041 164.42 33.2855C166.092 37.4359 166.179 39.727 166.179 39.727C166.179 39.727 165.78 39.9736 164.892 40.1029C164.004 40.2321 163.628 40.3187 163.628 40.3187Z" fill="url(#paint32_linear_201_882)"/>
<path d="M154.481 42.2718C154.481 42.2718 152.087 40.7764 149.202 37.8201C147.273 35.8469 143.366 32.1281 142.404 31.0988C142.32 31.0089 142.215 30.9412 142.098 30.9014C141.982 30.8616 141.857 30.851 141.735 30.8706C141.614 30.8901 141.498 30.9392 141.4 31.0135C141.302 31.0878 141.223 31.1851 141.171 31.2968L140.872 31.9324C140.77 32.1484 140.732 32.3893 140.762 32.6264C140.793 32.8636 140.891 33.0869 141.044 33.27C141.964 34.3658 146.185 38.6063 148.732 41.0432C152.194 44.3577 154.613 45.7321 154.613 45.7321L154.481 42.2718Z" fill="url(#paint33_linear_201_882)"/>
<path d="M168.814 46.5124C166.18 48.45 159.187 50.6984 157.084 49.5446C157.045 49.5315 155.437 48.5888 155.408 48.5674C153.498 47.3116 154.533 44.8818 154.39 42.9442C154.297 41.6634 155.619 41.144 156.139 41.1085C157.122 41.0421 159.829 41.0492 164.778 40.0578C169.728 39.0664 169.072 37.5438 169.072 37.5438C169.072 37.5438 171.904 38.3893 172.482 39.8823C173.025 41.284 171.501 44.5403 168.814 46.5124Z" fill="url(#paint34_linear_201_882)"/>
<path d="M170.384 47.4338C167.752 49.3726 159.187 50.7019 157.085 49.5481L157.712 44.8107C157.753 44.4935 157.908 44.2021 158.148 43.9908C158.388 43.7794 158.697 43.6624 159.017 43.6616C161.063 43.6616 165.465 43.5015 169.111 42.2718C171.065 41.6136 172.028 40.7207 172.481 39.8859C172.539 39.9784 172.599 40.0768 172.65 40.1811C173.326 41.5211 173.073 45.4593 170.384 47.4338Z" fill="url(#paint35_linear_201_882)"/>
<path d="M170.211 47.1895C167.892 48.8971 160.232 50.2608 157.597 49.4366C157.529 49.4153 157.469 49.3904 157.408 49.3655L157.447 49.0797C160.14 49.8588 167.69 48.5105 169.978 46.8183C172.267 45.1261 172.646 42.1235 172.362 40.5855C172.399 40.5464 172.422 40.5108 172.454 40.4669C172.936 41.7536 172.768 45.3146 170.211 47.1895Z" fill="url(#paint36_linear_201_882)"/>
<path d="M169.978 46.8183C167.689 48.5105 160.136 49.8588 157.447 49.0797L158.006 44.8439C158.039 44.5982 158.159 44.3727 158.345 44.2091C158.532 44.0454 158.771 43.9545 159.019 43.9533C161.265 43.9533 165.581 43.7719 169.205 42.5469C170.643 42.0631 171.707 41.4073 172.362 40.5855C172.646 42.1235 172.269 45.1403 169.978 46.8183Z" fill="url(#paint37_linear_201_882)"/>
<defs>
<linearGradient id="paint0_linear_201_882" x1="134.579" y1="223.15" x2="211.323" y2="232.816" gradientUnits="userSpaceOnUse">
<stop stop-color="#245FAD"/>
<stop offset="1" stop-color="#000D56"/>
</linearGradient>
<linearGradient id="paint1_linear_201_882" x1="137.042" y1="220.888" x2="207.522" y2="229.766" gradientUnits="userSpaceOnUse">
<stop stop-color="#48B9FF"/>
<stop offset="1" stop-color="#2468FF"/>
</linearGradient>
<linearGradient id="paint2_linear_201_882" x1="205.219" y1="251.44" x2="152.1" y2="221.164" gradientUnits="userSpaceOnUse">
<stop stop-color="#001251"/>
<stop offset="1" stop-color="#000D56"/>
</linearGradient>
<linearGradient id="paint3_linear_201_882" x1="152.088" y1="55.3682" x2="152.088" y2="116.72" gradientUnits="userSpaceOnUse">
<stop stop-color="#F0F1F8"/>
<stop offset="1" stop-color="#C5CAEA"/>
</linearGradient>
<linearGradient id="paint4_linear_201_882" x1="95.3248" y1="55.3682" x2="95.3248" y2="116.72" gradientUnits="userSpaceOnUse">
<stop stop-color="#F0F1F8"/>
<stop offset="1" stop-color="#C5CAEA"/>
</linearGradient>
<linearGradient id="paint5_linear_201_882" x1="38.8472" y1="55.3682" x2="38.8472" y2="116.72" gradientUnits="userSpaceOnUse">
<stop stop-color="#F0F1F8"/>
<stop offset="1" stop-color="#C5CAEA"/>
</linearGradient>
<linearGradient id="paint6_linear_201_882" x1="178.034" y1="103.608" x2="251.19" y2="103.608" gradientUnits="userSpaceOnUse">
<stop stop-color="#C1C1C1"/>
<stop offset="1" stop-color="#FBFFFF"/>
</linearGradient>
<linearGradient id="paint7_linear_201_882" x1="191.262" y1="69.092" x2="172.919" y2="70.5079" gradientUnits="userSpaceOnUse">
<stop stop-color="#48B9FF"/>
<stop offset="1" stop-color="#2468FF"/>
</linearGradient>
<linearGradient id="paint8_linear_201_882" x1="185.186" y1="215.749" x2="171.353" y2="216.768" gradientUnits="userSpaceOnUse">
<stop stop-color="#FFC7C7"/>
<stop offset="1" stop-color="#FFA4A4"/>
</linearGradient>
<linearGradient id="paint9_linear_201_882" x1="151.046" y1="226.837" x2="141.336" y2="227.552" gradientUnits="userSpaceOnUse">
<stop stop-color="#FFC7C7"/>
<stop offset="1" stop-color="#FFA4A4"/>
</linearGradient>
<linearGradient id="paint10_linear_201_882" x1="185.683" y1="159.066" x2="161.37" y2="160.858" gradientUnits="userSpaceOnUse">
<stop stop-color="#245FAD"/>
<stop offset="1" stop-color="#000D56"/>
</linearGradient>
<linearGradient id="paint11_linear_201_882" x1="173.732" y1="167.943" x2="137.522" y2="170.613" gradientUnits="userSpaceOnUse">
<stop stop-color="#245FAD"/>
<stop offset="1" stop-color="#000D56"/>
</linearGradient>
<linearGradient id="paint12_linear_201_882" x1="157.095" y1="230.422" x2="139.875" y2="231.752" gradientUnits="userSpaceOnUse">
<stop stop-color="#245FAD"/>
<stop offset="1" stop-color="#000D56"/>
</linearGradient>
<linearGradient id="paint13_linear_201_882" x1="188.749" y1="217.504" x2="168.73" y2="219.049" gradientUnits="userSpaceOnUse">
<stop stop-color="#245FAD"/>
<stop offset="1" stop-color="#000D56"/>
</linearGradient>
<linearGradient id="paint14_linear_201_882" x1="180.254" y1="86.3342" x2="137.264" y2="89.6522" gradientUnits="userSpaceOnUse">
<stop stop-color="#48B9FF"/>
<stop offset="1" stop-color="#2468FF"/>
</linearGradient>
<linearGradient id="paint15_linear_201_882" x1="147.169" y1="86.9935" x2="130.89" y2="88.2493" gradientUnits="userSpaceOnUse">
<stop stop-color="#48B9FF"/>
<stop offset="1" stop-color="#2468FF"/>
</linearGradient>
<linearGradient id="paint16_linear_201_882" x1="164.741" y1="41.4236" x2="168.68" y2="43.1174" gradientUnits="userSpaceOnUse">
<stop stop-color="#261589"/>
<stop offset="1" stop-color="#000D56"/>
</linearGradient>
<linearGradient id="paint17_linear_201_882" x1="152.78" y1="41.3883" x2="156.717" y2="55.1666" gradientUnits="userSpaceOnUse">
<stop stop-color="#FFC7C7"/>
<stop offset="1" stop-color="#FFA4A4"/>
</linearGradient>
<linearGradient id="paint18_linear_201_882" x1="155.208" y1="35.85" x2="150.046" y2="45.7749" gradientUnits="userSpaceOnUse">
<stop stop-color="#261589"/>
<stop offset="1" stop-color="#000D56"/>
</linearGradient>
<linearGradient id="paint19_linear_201_882" x1="181.989" y1="105.151" x2="198.405" y2="101.125" gradientUnits="userSpaceOnUse">
<stop stop-color="#C1C1C1"/>
<stop offset="1" stop-color="#FBFFFF"/>
</linearGradient>
<linearGradient id="paint20_linear_201_882" x1="64.5162" y1="147.919" x2="47.6131" y2="148.933" gradientUnits="userSpaceOnUse">
<stop stop-color="#C1C1C1"/>
<stop offset="1" stop-color="#FBFFFF"/>
</linearGradient>
<linearGradient id="paint21_linear_201_882" x1="69.4917" y1="152.205" x2="58.9792" y2="152.836" gradientUnits="userSpaceOnUse">
<stop stop-color="#C1C1C1"/>
<stop offset="1" stop-color="#FBFFFF"/>
</linearGradient>
<linearGradient id="paint22_linear_201_882" x1="177.484" y1="112.304" x2="176.456" y2="111.109" gradientUnits="userSpaceOnUse">
<stop stop-color="#C1C1C1"/>
<stop offset="1" stop-color="#FBFFFF"/>
</linearGradient>
<linearGradient id="paint23_linear_201_882" x1="182.643" y1="116.017" x2="181.615" y2="114.821" gradientUnits="userSpaceOnUse">
<stop stop-color="#C1C1C1"/>
<stop offset="1" stop-color="#FBFFFF"/>
</linearGradient>
<linearGradient id="paint24_linear_201_882" x1="171.409" y1="119.69" x2="181.932" y2="117.11" gradientUnits="userSpaceOnUse">
<stop stop-color="#C1C1C1"/>
<stop offset="1" stop-color="#FBFFFF"/>
</linearGradient>
<linearGradient id="paint25_linear_201_882" x1="173.541" y1="116.27" x2="178.518" y2="125.403" gradientUnits="userSpaceOnUse">
<stop stop-color="#C1C1C1"/>
<stop offset="1" stop-color="#A2A2A2"/>
</linearGradient>
<linearGradient id="paint26_linear_201_882" x1="165.087" y1="123.808" x2="179.629" y2="120.241" gradientUnits="userSpaceOnUse">
<stop stop-color="#C1C1C1"/>
<stop offset="1" stop-color="#FBFFFF"/>
</linearGradient>
<linearGradient id="paint27_linear_201_882" x1="164.176" y1="126.199" x2="172.456" y2="126.199" gradientUnits="userSpaceOnUse">
<stop stop-color="#C1C1C1"/>
<stop offset="1" stop-color="#A2A2A2"/>
</linearGradient>
<linearGradient id="paint28_linear_201_882" x1="164.672" y1="128.118" x2="169.222" y2="127.002" gradientUnits="userSpaceOnUse">
<stop stop-color="#C1C1C1"/>
<stop offset="1" stop-color="#FBFFFF"/>
</linearGradient>
<linearGradient id="paint29_linear_201_882" x1="179.636" y1="113.505" x2="137.141" y2="116.785" gradientUnits="userSpaceOnUse">
<stop stop-color="#FFC7C7"/>
<stop offset="1" stop-color="#FFA4A4"/>
</linearGradient>
<linearGradient id="paint30_linear_201_882" x1="199.056" y1="90.1017" x2="185.245" y2="87.9325" gradientUnits="userSpaceOnUse">
<stop stop-color="#FFC7C7"/>
<stop offset="1" stop-color="#FFA4A4"/>
</linearGradient>
<linearGradient id="paint31_linear_201_882" x1="58.0063" y1="182.167" x2="167.771" y2="182.167" gradientUnits="userSpaceOnUse">
<stop stop-color="#C1C1C1"/>
<stop offset="1" stop-color="#FBFFFF"/>
</linearGradient>
<linearGradient id="paint32_linear_201_882" x1="148.245" y1="29.5761" x2="167.34" y2="35.6062" gradientUnits="userSpaceOnUse">
<stop stop-color="#C1C1C1"/>
<stop offset="1" stop-color="#FBFFFF"/>
</linearGradient>
<linearGradient id="paint33_linear_201_882" x1="139.564" y1="35.9208" x2="155.945" y2="41.0938" gradientUnits="userSpaceOnUse">
<stop stop-color="#C1C1C1"/>
<stop offset="1" stop-color="#FBFFFF"/>
</linearGradient>
<linearGradient id="paint34_linear_201_882" x1="154.659" y1="41.3309" x2="170.742" y2="46.4096" gradientUnits="userSpaceOnUse">
<stop stop-color="#C1C1C1"/>
<stop offset="1" stop-color="#FBFFFF"/>
</linearGradient>
<linearGradient id="paint35_linear_201_882" x1="172.764" y1="47.2473" x2="159.726" y2="43.845" gradientUnits="userSpaceOnUse">
<stop stop-color="#C1C1C1"/>
<stop offset="1" stop-color="#FBFFFF"/>
</linearGradient>
<linearGradient id="paint36_linear_201_882" x1="172.466" y1="43.4727" x2="157.126" y2="51.5936" gradientUnits="userSpaceOnUse">
<stop stop-color="#2729A3"/>
<stop offset="1" stop-color="#2972FF"/>
</linearGradient>
<linearGradient id="paint37_linear_201_882" x1="158.371" y1="43.2003" x2="170.858" y2="47.1438" gradientUnits="userSpaceOnUse">
<stop stop-color="#48B9FF"/>
<stop offset="0.77" stop-color="#2C7BFF"/>
<stop offset="0.99" stop-color="#2468FF"/>
</linearGradient>
</defs>
</svg>
