<svg width="72" height="72" viewBox="0 0 72 72" fill="none" xmlns="http://www.w3.org/2000/svg">
<g filter="url(#filter0_dd_107_535)">
<path d="M16 36C16 24.9543 24.9543 16 36 16V16C47.0457 16 56 24.9543 56 36V36C56 47.0457 47.0457 56 36 56V56C24.9543 56 16 47.0457 16 36V36Z" fill="white"/>
</g>
<path d="M48.3782 43.2334C48.1422 43.4592 47.8651 43.6747 47.5675 43.8081C47.1776 43.9825 46.7466 44.1467 46.3258 44.1775C45.6486 44.2288 45.2586 44.5469 45.0431 45.1626C44.9713 45.3884 44.8584 45.5936 44.725 45.8912C44.3351 45.8707 43.9554 45.8912 43.586 45.8296C42.1801 45.5936 40.8974 45.8296 39.7789 46.7634C39.6352 46.8866 39.4608 46.9892 39.3069 47.0918C37.3264 48.3848 35.3356 48.4258 33.3243 47.1636C33.2012 47.0918 33.0678 47.02 32.9549 46.9379C31.6722 45.922 30.2663 45.491 28.6245 45.9014C27.9472 46.0656 27.7727 45.963 27.5367 45.296C27.2699 44.5572 26.7671 44.2596 26.0385 44.1467C25.4228 44.0543 24.8174 43.8696 24.3146 43.4489C23.8528 43.059 23.9041 42.5356 24.4377 42.3201C24.6122 42.2483 24.8071 42.2175 24.9918 42.1559C27.0442 41.4581 28.3679 39.9805 29.2812 38.0923C29.5583 37.5177 29.4557 37.1688 28.9426 36.8712C28.6142 36.6762 28.2243 36.5838 27.8856 36.3991C27.4649 36.1734 27.0442 35.9374 26.685 35.6295C26.3669 35.3627 26.3977 34.8907 26.7055 34.6033C27.0339 34.2852 27.4033 34.1005 27.8856 34.2339C28.3884 34.3776 28.881 34.6136 29.4864 34.3571C29.5172 34.0903 29.5685 33.8132 29.5685 33.5361C29.5788 32.6228 29.5275 31.6993 29.5583 30.786C29.6404 28.5797 30.6563 26.9584 32.6163 25.8912C35.0175 24.5879 37.4085 24.5469 39.8097 25.8193C41.8004 26.8763 42.919 28.5182 42.9498 30.8168C42.9703 31.9661 42.9498 33.1257 42.9498 34.2852C43.4731 34.6239 43.9246 34.4289 44.3659 34.275C44.7558 34.1416 45.115 34.1621 45.4844 34.3468C46.1514 34.6957 46.254 35.4345 45.6486 35.8655C45.2997 36.1118 44.8892 36.2965 44.489 36.4504C42.9395 37.0456 42.7753 37.3535 43.6475 38.8927C44.5711 40.5243 45.9051 41.6326 47.6701 42.2278C47.8548 42.2893 48.0395 42.3201 48.214 42.4022C48.5218 42.5253 48.6347 42.9871 48.3782 43.2334Z" fill="#86C6F4"/>
<defs>
<filter id="filter0_dd_107_535" x="0" y="0" width="72" height="72" filterUnits="userSpaceOnUse" color-interpolation-filters="sRGB">
<feFlood flood-opacity="0" result="BackgroundImageFix"/>
<feColorMatrix in="SourceAlpha" type="matrix" values="0 0 0 0 0 0 0 0 0 0 0 0 0 0 0 0 0 0 127 0" result="hardAlpha"/>
<feOffset dx="4" dy="4"/>
<feGaussianBlur stdDeviation="6"/>
<feColorMatrix type="matrix" values="0 0 0 0 0.733333 0 0 0 0 0.764706 0 0 0 0 0.807843 0 0 0 0.6 0"/>
<feBlend mode="normal" in2="BackgroundImageFix" result="effect1_dropShadow_107_535"/>
<feColorMatrix in="SourceAlpha" type="matrix" values="0 0 0 0 0 0 0 0 0 0 0 0 0 0 0 0 0 0 127 0" result="hardAlpha"/>
<feOffset dx="-4" dy="-4"/>
<feGaussianBlur stdDeviation="6"/>
<feColorMatrix type="matrix" values="0 0 0 0 0.992157 0 0 0 0 1 0 0 0 0 1 0 0 0 0.8 0"/>
<feBlend mode="normal" in2="effect1_dropShadow_107_535" result="effect2_dropShadow_107_535"/>
<feBlend mode="normal" in="SourceGraphic" in2="effect2_dropShadow_107_535" result="shape"/>
</filter>
</defs>
</svg>
