<svg width="72" height="72" viewBox="0 0 72 72" fill="none" xmlns="http://www.w3.org/2000/svg">
<g filter="url(#filter0_dd_107_529)">
<path d="M16 36C16 24.9543 24.9543 16 36 16V16C47.0457 16 56 24.9543 56 36V36C56 47.0457 47.0457 56 36 56V56C24.9543 56 16 47.0457 16 36V36Z" fill="white"/>
</g>
<path d="M29.0243 33.2154C29.0354 38.3388 29.0243 43.4622 29.0132 48.5745C29.0132 48.7408 28.9466 48.9183 28.9134 49.0735C27.8044 49.506 26.3628 49.5614 23.7013 49.262C23.6458 49.1179 23.5239 48.9626 23.5239 48.8074C23.5017 43.5176 23.4795 38.2168 23.4795 32.916C23.4795 32.7608 23.5904 32.5944 23.6902 32.3283C25.3536 32.2285 27.0392 32.2285 28.8247 32.3394C28.9134 32.6721 29.0243 32.9382 29.0243 33.2154Z" fill="#86C6F4"/>
<path d="M29.4345 26.8611C29.4567 28.5245 28.1481 29.7887 26.3516 29.822C24.5551 29.8553 23.18 28.6576 23.1135 27.0053C23.047 25.242 24.3666 24 26.3073 24C28.1592 24 29.4013 25.1311 29.4345 26.8611Z" fill="#86C6F4"/>
<path d="M49.7616 48.4747C49.7616 48.6965 49.6951 48.9183 49.6507 49.2398C47.8764 49.5836 46.1353 49.3951 44.1503 49.3064V46.8223C44.1503 44.6931 44.1725 42.575 44.1281 40.4458C44.117 39.7472 44.0172 39.0375 43.8509 38.3499C43.5958 37.2964 42.9305 36.5867 41.8104 36.3871C40.6127 36.1653 39.5814 36.4758 38.7941 37.4184C38.3283 37.9729 38.0511 38.6272 38.0289 39.3591C38.0067 40.0688 38.0067 40.7785 38.0178 41.4772C38.0732 43.7173 37.7516 45.9573 38.0067 48.1974C38.04 48.5301 37.9069 48.8739 37.8625 49.1844C36.2324 49.4949 33.959 49.4838 32.5728 49.1844C32.3399 47.7982 32.3067 34.6571 32.5285 32.6055C33.6042 32.1952 35.0347 32.1287 37.7073 32.3837C38.3727 32.8495 37.7073 33.6369 38.1952 34.269C38.3616 34.1359 38.5612 34.0361 38.6832 33.8808C39.5482 32.7164 40.7569 32.1619 42.1542 31.9623C45.2149 31.5409 48.5085 32.6388 49.4955 36.9748C49.6729 37.7733 49.7505 38.6161 49.7616 39.4367C49.7838 42.453 49.7616 45.4694 49.7616 48.4747Z" fill="#86C6F4"/>
<defs>
<filter id="filter0_dd_107_529" x="0" y="0" width="72" height="72" filterUnits="userSpaceOnUse" color-interpolation-filters="sRGB">
<feFlood flood-opacity="0" result="BackgroundImageFix"/>
<feColorMatrix in="SourceAlpha" type="matrix" values="0 0 0 0 0 0 0 0 0 0 0 0 0 0 0 0 0 0 127 0" result="hardAlpha"/>
<feOffset dx="4" dy="4"/>
<feGaussianBlur stdDeviation="6"/>
<feColorMatrix type="matrix" values="0 0 0 0 0.733333 0 0 0 0 0.764706 0 0 0 0 0.807843 0 0 0 0.6 0"/>
<feBlend mode="normal" in2="BackgroundImageFix" result="effect1_dropShadow_107_529"/>
<feColorMatrix in="SourceAlpha" type="matrix" values="0 0 0 0 0 0 0 0 0 0 0 0 0 0 0 0 0 0 127 0" result="hardAlpha"/>
<feOffset dx="-4" dy="-4"/>
<feGaussianBlur stdDeviation="6"/>
<feColorMatrix type="matrix" values="0 0 0 0 0.992157 0 0 0 0 1 0 0 0 0 1 0 0 0 0.8 0"/>
<feBlend mode="normal" in2="effect1_dropShadow_107_529" result="effect2_dropShadow_107_529"/>
<feBlend mode="normal" in="SourceGraphic" in2="effect2_dropShadow_107_529" result="shape"/>
</filter>
</defs>
</svg>
