<svg width="97" height="97" viewBox="0 0 97 97" fill="none" xmlns="http://www.w3.org/2000/svg">
<g filter="url(#filter0_dd_5_34)">
<path d="M16 48.5C16 30.5507 30.5507 16 48.5 16C66.4493 16 81 30.5507 81 48.5C81 66.4493 66.4493 81 48.5 81C30.5507 81 16 66.4493 16 48.5Z" fill="white"/>
<g clip-path="url(#clip0_5_34)">
<path d="M40.5104 42.2708C40.7908 42.4902 41.1929 42.455 41.4313 42.1896C44.9196 38.2855 50.9118 37.9497 54.8159 41.438C55.0203 41.6208 55.218 41.8131 55.4063 42.0135C55.669 42.279 56.0983 42.2803 56.3637 42.0176C56.365 42.0163 56.3664 42.0149 56.3677 42.0135L60.3219 38.3031C60.5873 38.0404 60.5887 37.6111 60.326 37.3457C60.3246 37.3444 60.3233 37.343 60.3219 37.3417C54.1686 30.8092 43.8837 30.5018 37.3512 36.6551C36.9381 37.0438 36.5468 37.4541 36.1771 37.8833C35.9334 38.1677 35.9659 38.5943 36.2502 38.838C36.2705 38.8556 36.2909 38.8705 36.3125 38.8854L40.5104 42.2708ZM39.3459 52.2781C39.5463 52.098 39.6208 51.8164 39.5354 51.5604C38.8665 49.6023 38.8665 47.479 39.5354 45.5208C39.6262 45.2514 39.5395 44.9548 39.3188 44.776L34.8906 41.2417C34.5981 41.0088 34.1716 41.0575 33.9387 41.35C33.9089 41.3879 33.8831 41.4285 33.8615 41.4719C31.661 46.0449 31.7354 51.3857 34.0646 55.8938C34.2366 56.2255 34.6455 56.3555 34.9773 56.1835C35.0288 56.1565 35.0775 56.1226 35.1209 56.0833L39.3459 52.2781ZM64.75 46.4688C64.75 46.095 64.4467 45.7917 64.0729 45.7917H50.5313C50.1575 45.7917 49.8542 46.095 49.8542 46.4688V51.8854C49.8542 52.2592 50.1575 52.5625 50.5313 52.5625H57.0854C56.686 53.3885 56.166 54.1509 55.5417 54.824C55.3088 55.0813 55.3088 55.474 55.5417 55.7313L59.1573 59.7938C59.4133 60.0673 59.8412 60.0808 60.1147 59.8249C60.1255 59.8154 60.1364 59.8046 60.1459 59.7938C62.9016 56.9744 64.5374 53.2491 64.75 49.3125V46.4688ZM53.2667 57.2479C53.069 57.0272 52.7508 56.9622 52.4813 57.0854C48.7384 58.8485 44.2818 57.9507 41.5125 54.8781C41.2498 54.6195 40.8273 54.6195 40.5646 54.8781L36.5021 58.5073C36.2367 58.77 36.2353 59.1993 36.498 59.4647C36.4994 59.466 36.5008 59.4674 36.5021 59.4688C41.6913 65.1766 50.1792 66.4508 56.8146 62.5156C57.1355 62.3247 57.2412 61.909 57.0502 61.588C57.0286 61.5515 57.0042 61.5176 56.9771 61.4865L53.2667 57.2479Z" fill="#86C6F4"/>
</g>
</g>
<defs>
<filter id="filter0_dd_5_34" x="0" y="0" width="97" height="97" filterUnits="userSpaceOnUse" color-interpolation-filters="sRGB">
<feFlood flood-opacity="0" result="BackgroundImageFix"/>
<feColorMatrix in="SourceAlpha" type="matrix" values="0 0 0 0 0 0 0 0 0 0 0 0 0 0 0 0 0 0 127 0" result="hardAlpha"/>
<feOffset dx="4" dy="4"/>
<feGaussianBlur stdDeviation="6"/>
<feColorMatrix type="matrix" values="0 0 0 0 0.733333 0 0 0 0 0.764706 0 0 0 0 0.807843 0 0 0 0.6 0"/>
<feBlend mode="normal" in2="BackgroundImageFix" result="effect1_dropShadow_5_34"/>
<feColorMatrix in="SourceAlpha" type="matrix" values="0 0 0 0 0 0 0 0 0 0 0 0 0 0 0 0 0 0 127 0" result="hardAlpha"/>
<feOffset dx="-4" dy="-4"/>
<feGaussianBlur stdDeviation="6"/>
<feColorMatrix type="matrix" values="0 0 0 0 0.992157 0 0 0 0 1 0 0 0 0 1 0 0 0 0.8 0"/>
<feBlend mode="normal" in2="effect1_dropShadow_5_34" result="effect2_dropShadow_5_34"/>
<feBlend mode="normal" in="SourceGraphic" in2="effect2_dropShadow_5_34" result="shape"/>
</filter>
<clipPath id="clip0_5_34">
<rect width="32.5" height="32.5" fill="white" transform="translate(32.25 32.25)"/>
</clipPath>
</defs>
</svg>
