<svg width="97" height="97" viewBox="0 0 97 97" fill="none" xmlns="http://www.w3.org/2000/svg">
<g filter="url(#filter0_dd_5_33)">
<path d="M16 48.5C16 30.5507 30.5507 16 48.5 16C66.4493 16 81 30.5507 81 48.5C81 66.4493 66.4493 81 48.5 81C30.5507 81 16 66.4493 16 48.5Z" fill="white"/>
<g clip-path="url(#clip0_5_33)">
<path d="M63.8291 40.9708C64.1162 40.7311 64.1555 40.3046 63.9172 40.0175C63.8251 39.9065 63.6991 39.8279 63.5583 39.7927L62.4885 39.5219C62.1256 39.4311 61.9049 39.0628 61.9956 38.7013C62.0064 38.6566 62.0227 38.6146 62.0416 38.574L62.6375 37.3688C62.8 37.0316 62.6578 36.6267 62.322 36.4642C62.1757 36.3938 62.0091 36.3789 61.8521 36.4208L59.1437 37.1792C58.9392 37.2388 58.7185 37.1981 58.5479 37.0708C57.3765 36.192 55.9506 35.7167 54.4854 35.7167C50.7465 35.7167 47.7146 38.7486 47.7146 42.4875V42.975C47.7159 43.147 47.5873 43.2932 47.4166 43.3135C43.6114 43.7604 39.9687 41.824 36.0416 37.301C35.8683 37.1088 35.6015 37.0302 35.351 37.0979C35.1262 37.2008 34.9759 37.4189 34.9583 37.6667C34.4153 39.8943 34.6347 42.2397 35.5812 44.3292C35.6652 44.4957 35.5988 44.7002 35.4323 44.7842C35.3686 44.8153 35.2982 44.8275 35.2291 44.8167L33.7125 44.5188C33.3428 44.4592 32.9961 44.711 32.9365 45.0794C32.9244 45.1593 32.9257 45.2392 32.9406 45.3177C33.1776 47.4234 34.3584 49.3057 36.15 50.4365C36.3179 50.5177 36.3883 50.7208 36.3071 50.8888C36.2732 50.9578 36.219 51.0133 36.15 51.0458L35.4323 51.3302C35.0856 51.4697 34.9163 51.8638 35.0558 52.2104C35.0626 52.2294 35.0707 52.247 35.0802 52.2646C35.8859 54.0277 37.5055 55.283 39.4135 55.6229C39.5896 55.6866 39.6803 55.8816 39.6166 56.0562C39.5828 56.151 39.5083 56.2242 39.4135 56.2594C37.5719 57.0204 35.5961 57.4036 33.6041 57.3833C33.2304 57.3089 32.8661 57.5512 32.7916 57.925C32.7172 58.2987 32.9596 58.663 33.3333 58.7375C36.7837 60.3733 40.5388 61.2644 44.3562 61.351C47.7132 61.4025 51.012 60.46 53.8354 58.6427C58.5533 55.4929 61.3795 50.1914 61.3646 44.5188V43.3406C61.3659 43.1416 61.4553 42.9533 61.6083 42.826L63.8291 40.9708Z" fill="#86C6F4"/>
</g>
</g>
<defs>
<filter id="filter0_dd_5_33" x="0" y="0" width="97" height="97" filterUnits="userSpaceOnUse" color-interpolation-filters="sRGB">
<feFlood flood-opacity="0" result="BackgroundImageFix"/>
<feColorMatrix in="SourceAlpha" type="matrix" values="0 0 0 0 0 0 0 0 0 0 0 0 0 0 0 0 0 0 127 0" result="hardAlpha"/>
<feOffset dx="4" dy="4"/>
<feGaussianBlur stdDeviation="6"/>
<feColorMatrix type="matrix" values="0 0 0 0 0.733333 0 0 0 0 0.764706 0 0 0 0 0.807843 0 0 0 0.6 0"/>
<feBlend mode="normal" in2="BackgroundImageFix" result="effect1_dropShadow_5_33"/>
<feColorMatrix in="SourceAlpha" type="matrix" values="0 0 0 0 0 0 0 0 0 0 0 0 0 0 0 0 0 0 127 0" result="hardAlpha"/>
<feOffset dx="-4" dy="-4"/>
<feGaussianBlur stdDeviation="6"/>
<feColorMatrix type="matrix" values="0 0 0 0 0.992157 0 0 0 0 1 0 0 0 0 1 0 0 0 0.8 0"/>
<feBlend mode="normal" in2="effect1_dropShadow_5_33" result="effect2_dropShadow_5_33"/>
<feBlend mode="normal" in="SourceGraphic" in2="effect2_dropShadow_5_33" result="shape"/>
</filter>
<clipPath id="clip0_5_33">
<rect width="32.5" height="32.5" fill="white" transform="translate(32.25 32.25)"/>
</clipPath>
</defs>
</svg>
