<svg width="274" height="336" viewBox="0 0 274 336" fill="none" xmlns="http://www.w3.org/2000/svg">
<path d="M115.818 58.5966L28.381 150.267C23.0925 155.909 21.6822 164.723 25.5605 171.422L75.2724 262.035C79.1507 269.44 87.9648 272.965 96.0739 270.85L214.889 239.118C221.588 237.355 226.876 231.713 227.934 225.014L248.735 112.541C250.498 103.727 245.562 95.2649 237.101 92.0917L134.856 54.013C128.157 51.545 120.754 53.3079 115.818 58.5966Z" fill="#F5F5F5"/>
<path d="M65.0445 0H58.1064V329.141H65.0445V0Z" fill="#CCCCCC"/>
<path d="M137 336C212.663 336 274 333.395 274 330.182C274 326.969 212.663 324.365 137 324.365C61.337 324.365 0 326.969 0 330.182C0 333.395 61.337 336 137 336Z" fill="#CCCCCC"/>
<path d="M16.8307 31.2867L98.9794 28.4141L112.216 43.1887L100.069 59.6591L17.9203 62.5317L16.8307 31.2867Z" fill="#E6E6E6"/>
<path d="M105.285 125.803L19.403 113.716L8.23609 96.7669L23.7481 82.7565L109.63 94.8429L105.285 125.803Z" fill="#E6E6E6"/>
<path d="M21.6997 151.92L98.0354 145.243L111.166 159.377L100.752 176.382L24.4159 183.059L21.6997 151.92Z" fill="#E6E6E6"/>
<path d="M181.878 123.236L167.926 125.427C163.445 151.946 158.62 166.802 154.932 185.415C154.613 187.03 152.265 195.402 154.478 195.402H199.689C197.412 164.701 193.419 141.822 181.878 123.236Z" fill="#44F3CC"/>
<path d="M133.105 106.749C133.352 99.9309 154.829 79.1341 171.039 71.8113L176.595 79.5C167.478 90.6096 154.629 100.485 155.048 102.597C155.467 104.709 157.503 108.534 176.528 114.463L166.654 139.043C153.997 127.189 133.832 113.467 133.105 106.749Z" fill="#44F3CC"/>
<path d="M198.331 84.4867C197.429 90.2144 193.904 94.6953 189.464 97.9938L189 128.669L172.32 124.399L177.852 103.675C172.673 105.206 168.022 105.417 166.024 104.378C160.68 101.597 164.947 80.6837 171.23 73.5031C174.313 69.9787 181.523 68.5838 187.76 70.0274C194.234 71.5274 199.656 76.082 198.331 84.4867Z" fill="#F2CFB0"/>
<path d="M189.268 99.4787C192.702 98.3645 195.844 95.2313 197.467 91.3022C198.368 89.121 198.782 86.7692 198.681 84.4108C198.618 82.922 198.37 81.4467 197.942 80.019C197.798 67.893 186.03 66.2558 177.164 65.2915C172.846 64.8217 169.216 64.5111 167.953 63.2263C165.538 69.1938 167.572 74.927 178.999 76.5514C181.121 78.4822 182.288 81.4504 183.64 85.3898C184.705 85.2326 185.792 85.4491 186.717 86.0024C187.642 86.5558 188.347 87.412 188.713 88.426C189.08 89.44 189.085 90.5494 188.728 91.5663C188.37 92.5832 187.673 93.4451 186.753 94.0058C187.541 95.9257 188.363 97.7161 189.266 99.4783L189.268 99.4787Z" fill="#191847"/>
<path d="M160.418 178.307L149.505 318.213H160.438L171.33 258.217L194.486 178.309L160.418 178.307Z" fill="#F2CFB0"/>
<path d="M164.626 178.307C173.789 218.021 180.064 240.661 182.191 246.233C184.318 251.805 190.783 277.063 209.312 319.477H220.682C206.692 275.263 204.637 250.006 204.277 246.233C203.916 242.461 203.278 219.818 204.894 178.307H164.626Z" fill="#F2CFB0"/>
<path d="M160.282 178.307C151.582 207.376 146.558 248.103 147.744 309.981H163.733C178.547 249.695 188.965 205.804 194.988 178.307H160.282Z" fill="#666666"/>
<path d="M166.798 178.307C172.956 228.398 184.572 268.844 203.136 310.628H220.197C207.49 260.715 203.391 219.819 204.974 178.307H166.798Z" fill="#999999"/>
<path d="M221.048 329.606H185.286L184.35 326.3C184.263 325.993 184.295 325.664 184.44 325.38C184.585 325.096 184.831 324.877 185.13 324.768L207.876 316.311L221.139 317.527C221.289 317.541 221.43 317.608 221.535 317.717C221.64 317.825 221.703 317.968 221.713 318.119L222.306 327.705L221.048 329.606Z" fill="#191847"/>
<path d="M161.622 329.606H125.86L124.923 326.3C124.837 325.993 124.869 325.664 125.014 325.38C125.158 325.096 125.405 324.877 125.704 324.768L148.45 316.311L161.713 317.527C161.864 317.541 162.004 317.608 162.109 317.717C162.214 317.825 162.277 317.968 162.287 318.119L162.88 327.705L161.622 329.606Z" fill="#191847"/>
<path d="M237.885 216.924C237.581 216.921 237.278 216.883 236.983 216.811C237.715 213.644 239.701 207.628 237.573 204.346C236.629 202.887 229.642 190.001 216.613 165.689L229.568 163.116C238.356 186.304 243.594 199.013 245.281 201.241C246.52 202.875 254.165 207.076 259.336 209.321C261.418 210.223 260.967 211.981 260.358 212.542C255.405 217.113 250.899 213.724 245.588 212.403C242.611 211.662 241.631 213.114 240.77 214.565C240.067 215.742 239.444 216.924 237.885 216.924Z" fill="#F2CFB0"/>
<path d="M187.424 111.203L173.472 113.394C168.991 139.913 164.166 154.769 160.478 173.382C160.159 174.997 157.811 183.369 160.024 183.369H205.235C202.958 152.668 198.965 129.788 187.424 111.203Z" fill="white"/>
<path d="M234.923 202.995C228.209 195.159 216.983 177.723 207.121 159.913C208.208 170.821 209.007 186.259 209.697 196.665H172.441C164.012 175.335 182.8 111.203 182.8 111.203H188.324C217.136 133.551 232.017 161.92 245.062 201.007L234.923 202.995Z" fill="#A3F9E6"/>
</svg>
